<svg xmlns="http://www.w3.org/2000/svg" width="43.298" height="38.221" viewBox="0 0 43.298 38.221"><g id="aparcamiento-de-coches" transform="translate(0.25 0.25)"><path id="Path_12824" data-name="Path 12824" d="M43.8,40.924c-2.852-2.128-7.028-2.631-8.151-2.73A16.2,16.2,0,0,0,33.3,36.262a18.212,18.212,0,0,0-10.271-3.04h-8a4.955,4.955,0,0,0-2.862.907l-3.86,2.7H2.713A.713.713,0,0,0,2,37.544V45.4a3.224,3.224,0,0,0,3.217,3.224H7.081a4.1,4.1,0,0,0,7.62,0H31.583a4.1,4.1,0,0,0,7.627,0h4.874a.713.713,0,0,0,.713-.713V42.915a2.513,2.513,0,0,0-.994-1.991ZM13.5,47.739a2.683,2.683,0,0,1-5.216-.016,2.426,2.426,0,0,1-.082-.636,2.693,2.693,0,1,1,5.385,0,2.435,2.435,0,0,1-.087.652Zm24.508,0a2.687,2.687,0,0,1-5.223-.018,2.4,2.4,0,0,1-.082-.633,2.7,2.7,0,1,1,5.392,0,2.463,2.463,0,0,1-.086.652ZM43.37,47.2H39.517c0-.036,0-.071,0-.107a4.122,4.122,0,1,0-8.245,0c0,.036,0,.072,0,.107H15.009c0-.036,0-.071,0-.107a4.119,4.119,0,1,0-8.238,0c0,.036,0,.072,0,.107H5.216a1.8,1.8,0,0,1-1.79-1.8v-7.14h5.1a.711.711,0,0,0,.409-.129L12.98,35.3a3.536,3.536,0,0,1,2.043-.648h8A16.789,16.789,0,0,1,32.5,37.443a14.593,14.593,0,0,1,2.32,1.937.712.712,0,0,0,.472.217c.046,0,4.748.3,7.655,2.467a1.076,1.076,0,0,1,.424.851v4.28Z" transform="translate(-2 -13.49)" fill="#00a3c1" stroke="#00a3c1" stroke-width="0.5"></path><path id="Path_12825" data-name="Path 12825" d="M36.3,39.919H25.647V37.264a.713.713,0,1,0-1.427,0v2.655H18.407l-1.888-1.307a.714.714,0,1,0-.812,1.173l2.071,1.434a.712.712,0,0,0,.406.127H36.3a.713.713,0,0,0,0-1.427Z" transform="translate(-5.842 -14.444)" fill="#00a3c1" stroke="#00a3c1" stroke-width="0.5"></path><path id="Path_12826" data-name="Path 12826" d="M22.637,5.559a2.112,2.112,0,0,0-2.11,2.11V20.484a2.112,2.112,0,0,0,2.11,2.11H34.783a2.112,2.112,0,0,0,2.11-2.11V7.668a2.112,2.112,0,0,0-2.11-2.11H22.637Zm12.83,2.11V20.484a.684.684,0,0,1-.683.683H22.637a.684.684,0,0,1-.683-.683V7.668a.684.684,0,0,1,.683-.683H34.783a.684.684,0,0,1,.683.683Z" transform="translate(-7.312 -5.558)" fill="#00a3c1" stroke="#00a3c1" stroke-width="0.5"></path><path id="Path_12827" data-name="Path 12827" d="M32.562,10.43H28.5a.713.713,0,0,0-.713.713v8.6a.713.713,0,0,0,1.427,0v-3.2h3.352A2.453,2.453,0,0,0,35.013,14.1V12.881a2.453,2.453,0,0,0-2.451-2.451ZM33.587,14.1a1.025,1.025,0,0,1-1.024,1.024H29.211V11.857h3.352a1.025,1.025,0,0,1,1.024,1.024V14.1Z" transform="translate(-9.393 -6.955)" fill="#00a3c1" stroke="#00a3c1" stroke-width="0.5"></path></g></svg>