<svg xmlns="http://www.w3.org/2000/svg" width="37.45" height="37.751" viewBox="0 0 37.45 37.751"><path id="aprendizaje-electronico" d="M37.45,31.459V9.438a4.7,4.7,0,0,0-4.681-4.719h-1.56A4.732,4.732,0,0,0,29.347.953a4.652,4.652,0,0,0-4.105-.77L20.56,1.532a4.638,4.638,0,0,0-1.835,1.026A4.638,4.638,0,0,0,16.89,1.532L12.209.182a4.651,4.651,0,0,0-4.1.77A4.732,4.732,0,0,0,6.242,4.719H4.681A4.7,4.7,0,0,0,0,9.438V31.459H17.165v3.146H10.923v3.146h15.6V34.605H20.285V31.459ZM20.285,6.068a1.571,1.571,0,0,1,1.131-1.512L26.1,3.209a1.552,1.552,0,0,1,1.99,1.51v9.825l-7.8,2.246ZM9.363,4.719a1.577,1.577,0,0,1,.622-1.254,1.55,1.55,0,0,1,1.368-.256l4.681,1.348a1.571,1.571,0,0,1,1.131,1.512V16.79l-7.8-2.246ZM3.121,9.438a1.567,1.567,0,0,1,1.56-1.573h1.56v9.051l12.483,3.6,12.483-3.6V7.865h1.56a1.567,1.567,0,0,1,1.56,1.573V28.313H3.121Z" transform="translate(0 -0.001)" fill="#05a1c2"></path></svg>