<svg xmlns="http://www.w3.org/2000/svg" width="39.009" height="39.324" viewBox="0 0 39.009 39.324"><path id="arbol-de-banco" d="M24.382,22.119a5.718,5.718,0,0,0-5.689-5.735h-13A5.742,5.742,0,0,0,3.251,27.3v3.831H1.625a1.639,1.639,0,0,0,0,3.277H3.251v3.277a1.626,1.626,0,1,0,3.251,0V34.408H17.88v3.277a1.626,1.626,0,1,0,3.251,0V34.408h1.625a1.639,1.639,0,0,0,0-3.277H21.131V27.3A5.748,5.748,0,0,0,24.382,22.119ZM5.689,19.661h13a2.458,2.458,0,0,1,0,4.916h-13a2.458,2.458,0,0,1,0-4.916ZM6.5,31.131V27.854H17.88v3.277ZM38.27,16.648a6.548,6.548,0,0,1-6.516,9.535.782.782,0,0,0-.67.167.6.6,0,0,0-.2.457v10.88a1.626,1.626,0,1,1-3.251,0V26.807a3.914,3.914,0,0,1,1.278-2.9,3.968,3.968,0,0,1,3.093-1,3.311,3.311,0,0,0,3.672-2.5,3.251,3.251,0,0,0-.26-2.187,3.716,3.716,0,0,1-.008-3.654,3.413,3.413,0,0,0,.351-1.46,3.256,3.256,0,0,0-1.385-2.663,4.513,4.513,0,0,1-1.866-3.819,3.4,3.4,0,0,0-.257-1.347A3.192,3.192,0,0,0,30.18,3.4a3.475,3.475,0,0,0-1.85,0A3.185,3.185,0,0,0,26.262,5.28a3.376,3.376,0,0,0-.257,1.347,4.508,4.508,0,0,1-1.866,3.818,3.262,3.262,0,0,0-1.387,2.664,1.626,1.626,0,1,1-3.251,0,6.546,6.546,0,0,1,2.776-5.351A1.229,1.229,0,0,0,22.756,6.7a6.67,6.67,0,0,1,.493-2.653A6.418,6.418,0,0,1,27.49.236a6.755,6.755,0,0,1,3.53,0,6.424,6.424,0,0,1,4.242,3.813A6.67,6.67,0,0,1,35.755,6.7a1.235,1.235,0,0,0,.478,1.057,6.543,6.543,0,0,1,2.775,5.35,6.684,6.684,0,0,1-.666,2.866,1.16,1.16,0,0,0-.156.5,1.464,1.464,0,0,0,.081.172Z" transform="translate(0 -0.002)" fill="#05a1c2"></path></svg>