<svg xmlns="http://www.w3.org/2000/svg" width="37.45" height="37.752" viewBox="0 0 37.45 37.752"><path id="beisbol" d="M18.725,0A18.876,18.876,0,1,0,37.45,18.876,18.8,18.8,0,0,0,18.725,0ZM31.02,28.528a12.544,12.544,0,0,1-3.185-4.08l2.392-.964a1.578,1.578,0,0,0,.871-2.045,1.557,1.557,0,0,0-2.029-.878l-2.255.909a11.86,11.86,0,0,1,0-5.191l2.255.909A1.557,1.557,0,0,0,31.1,16.31a1.578,1.578,0,0,0-.871-2.045L27.835,13.3a12.544,12.544,0,0,1,3.185-4.08,15.728,15.728,0,0,1,0,19.3ZM6.43,9.224A12.544,12.544,0,0,1,9.615,13.3l-2.392.964a1.578,1.578,0,0,0-.871,2.045,1.557,1.557,0,0,0,2.029.878l2.255-.909a12.681,12.681,0,0,1,.287,2.594,12.681,12.681,0,0,1-.287,2.594l-2.255-.909a1.557,1.557,0,0,0-2.029.878,1.578,1.578,0,0,0,.871,2.045l2.392.964a12.544,12.544,0,0,1-3.185,4.08,15.728,15.728,0,0,1,0-19.3ZM8.593,30.815a15.647,15.647,0,0,0,3.918-5.2l2.514,1.015a1.557,1.557,0,0,0,2.029-.878,1.578,1.578,0,0,0-.871-2.045l-2.6-1.048a15.9,15.9,0,0,0,.46-3.783,15.9,15.9,0,0,0-.46-3.775l2.6-1.048a1.578,1.578,0,0,0,.871-2.045,1.557,1.557,0,0,0-2.029-.878l-2.514,1.015A15.647,15.647,0,0,0,8.593,6.937a15.435,15.435,0,0,1,20.264,0,15.647,15.647,0,0,0-3.918,5.2l-2.514-1.015A1.557,1.557,0,0,0,20.4,12a1.578,1.578,0,0,0,.871,2.045L23.874,15.1a15.775,15.775,0,0,0,0,7.566l-2.6,1.048a1.578,1.578,0,0,0-.871,2.045,1.557,1.557,0,0,0,2.029.878l2.514-1.015a15.647,15.647,0,0,0,3.918,5.2,15.435,15.435,0,0,1-20.264,0Z" fill="#05a1c2"></path></svg>