<svg xmlns="http://www.w3.org/2000/svg" width="43.092" height="43.092" viewBox="0 0 43.092 43.092"><g id="cocina" transform="translate(0.25 0.25)"><g id="Group_14700" data-name="Group 14700"><g id="Group_14699" data-name="Group 14699"><path id="Path_12828" data-name="Path 12828" d="M41.882,104H26.265a.71.71,0,0,0-.71.71v17.037H22.006v-.71h.71a.71.71,0,1,0,0-1.42h-7.1a.71.71,0,1,0,0,1.42h.71v.71h-7.1v-.71h.71a.71.71,0,1,0,0-1.42h-7.1a.71.71,0,1,0,0,1.42h.71v.71H.71a.71.71,0,0,0-.71.71v14.2a.71.71,0,0,0,.71.71H41.882a.71.71,0,0,0,.71-.71V104.71A.71.71,0,0,0,41.882,104ZM17.747,121.037h2.839v.71H17.747Zm-12.778,0H7.808v.71H4.969Zm6.389,14.907H1.42v-8.518h9.938Zm0-9.938H1.42v-2.839h9.938Zm14.2,9.938H12.778V123.166H25.555Zm15.617,0h-14.2V116.778h14.2Zm0-20.586h-14.2V105.42h14.2Z" transform="translate(0 -94.772)" fill="#00a3c1" stroke="#00a3c1" stroke-width="0.5"></path><path id="Path_12829" data-name="Path 12829" d="M160.71,345.938h8.518a.71.71,0,0,0,.71-.71V336.71a.71.71,0,0,0-.71-.71H160.71a.71.71,0,0,0-.71.71v8.518A.71.71,0,0,0,160.71,345.938Zm.71-8.518h7.1v7.1h-7.1Z" transform="translate(-145.803 -306.186)" fill="#00a3c1" stroke="#00a3c1" stroke-width="0.5"></path><path id="Path_12830" data-name="Path 12830" d="M312.71,180.259a.71.71,0,0,0,.71-.71V176.71a.71.71,0,1,0-1.42,0v2.839A.71.71,0,0,0,312.71,180.259Z" transform="translate(-284.315 -160.383)" fill="#00a3c1" stroke="#00a3c1" stroke-width="0.5"></path><path id="Path_12831" data-name="Path 12831" d="M312.71,260.259a.71.71,0,0,0,.71-.71V256.71a.71.71,0,1,0-1.42,0v2.839A.71.71,0,0,0,312.71,260.259Z" transform="translate(-284.315 -233.284)" fill="#00a3c1" stroke="#00a3c1" stroke-width="0.5"></path><path id="Path_12832" data-name="Path 12832" d="M16.243,12.612a.71.71,0,0,0,.456.165h21.3a.71.71,0,0,0,.546-1.165l-7.1-8.518a.71.71,0,0,0-.546-.255h-.71V.71a.71.71,0,0,0-.71-.71H25.217a.71.71,0,0,0-.71.71v2.13H23.8a.71.71,0,0,0-.546.255l-7.1,8.518A.71.71,0,0,0,16.243,12.612ZM25.927,1.42h2.839v1.42H25.927Zm-1.8,2.839h6.433l5.916,7.1H18.215Z" transform="translate(-14.569)" fill="#00a3c1" stroke="#00a3c1" stroke-width="0.5"></path></g></g></g></svg>