<svg xmlns="http://www.w3.org/2000/svg" id="comedor" width="48.069" height="32.696" viewBox="0 0 48.069 32.696"><path id="Path_12833" data-name="Path 12833" d="M54.487,66.063v-15.5H60.45A4.263,4.263,0,0,0,64.708,46.3a.9.9,0,0,0-.9-.9H39.8a.9.9,0,0,0-.9.9,4.263,4.263,0,0,0,4.259,4.259h5.964v15.5a4.262,4.262,0,0,0-3.174,4.113.9.9,0,0,0,.9.9h9.911a.9.9,0,0,0,.9-.9,4.262,4.262,0,0,0-3.174-4.113ZM40.87,47.2H62.739a2.465,2.465,0,0,1-2.29,1.56H43.159A2.465,2.465,0,0,1,40.87,47.2Zm11.818,3.359V65.917H50.921V50.559Zm-4.77,18.718a2.464,2.464,0,0,1,2.29-1.56H53.4a2.464,2.464,0,0,1,2.29,1.56Z" transform="translate(-27.77 -38.616)" fill="#00a3c1"></path><path id="Path_12834" data-name="Path 12834" d="M93.2,32.205h-1a4.263,4.263,0,0,0-4.259,4.259v9.311A1.477,1.477,0,0,1,86.46,47.25H80.74a4.263,4.263,0,0,0-4.259,4.259v1a.9.9,0,0,0,.9.9h2.427l-.865,10.509a.9.9,0,1,0,1.793.148l.874-10.65h7.972L90.9,64.107a.9.9,0,0,0,.894.792.818.818,0,0,0,.112-.007.9.9,0,0,0,.782-1L91.382,53.3A3.641,3.641,0,0,0,94.1,49.785V33.1a.9.9,0,0,0-.9-.9Zm-.9,17.58a1.842,1.842,0,0,1-1.839,1.839h-1.5a.852.852,0,0,0-.121-.008H78.28v-.1a2.463,2.463,0,0,1,2.46-2.459h5.72a3.279,3.279,0,0,0,3.275-3.275V36.464A2.463,2.463,0,0,1,92.195,34h.1Z" transform="translate(-46.03 -32.205)" fill="#00a3c1"></path><path id="Path_12835" data-name="Path 12835" d="M30.609,47.25h-5.72a1.477,1.477,0,0,1-1.475-1.475V36.464a4.263,4.263,0,0,0-4.259-4.259h-1a.9.9,0,0,0-.9.9v16.68A3.641,3.641,0,0,0,19.967,53.3L18.659,63.891a.9.9,0,0,0,.782,1,.818.818,0,0,0,.111.007.9.9,0,0,0,.892-.789l1.32-10.686h7.972l.877,10.65a.9.9,0,1,0,1.793-.148l-.865-10.514h2.427a.9.9,0,0,0,.9-.9v-1a4.263,4.263,0,0,0-4.259-4.259Zm2.46,4.364H22.513a.831.831,0,0,0-.119.008H20.888a1.841,1.841,0,0,1-1.839-1.837V34h.1a2.463,2.463,0,0,1,2.459,2.459v9.311a3.279,3.279,0,0,0,3.275,3.275h5.722a2.463,2.463,0,0,1,2.46,2.459Z" transform="translate(-17.25 -32.205)" fill="#00a3c1"></path></svg>