<svg xmlns="http://www.w3.org/2000/svg" width="39.012" height="39.325" viewBox="0 0 39.012 39.325"><path id="deposito" d="M37.385,29.494H32.512a6.5,6.5,0,0,1-4.785-2.117l-4.558-4.993a1.643,1.643,0,0,1,.125-2.3,1.605,1.605,0,0,1,2.04-.108l4.423,4.286a1.613,1.613,0,0,0,2.3-.046A1.646,1.646,0,0,0,32.01,21.9l-4.5-4.36A4.829,4.829,0,0,0,24.382,16.4V14.748a8.249,8.249,0,0,0-.164-1.639h4.759a8.108,8.108,0,0,1,5.2,1.9l2.163,1.817a1.617,1.617,0,0,0,2.29-.21,1.647,1.647,0,0,0-.208-2.307l-2.163-1.819a11.35,11.35,0,0,0-7.284-2.658H22.753a8.1,8.1,0,0,0-6.5-3.277H13.005A6.537,6.537,0,0,0,6.5,0,6.535,6.535,0,0,0,0,6.554V32.771a6.535,6.535,0,0,0,6.5,6.554A6.535,6.535,0,0,0,13,32.771h3.251a8.139,8.139,0,0,0,7.462-4.948L25.336,29.6a9.739,9.739,0,0,0,7.178,3.175h4.873a1.639,1.639,0,0,0,0-3.277ZM6.5,3.277A3.267,3.267,0,0,1,9.753,6.554h-6.5A3.267,3.267,0,0,1,6.5,3.277ZM3.251,16.385a3.277,3.277,0,0,1,0,6.554ZM6.5,36.048a3.267,3.267,0,0,1-3.251-3.277h6.5A3.267,3.267,0,0,1,6.5,36.048Zm9.753-6.554h-13V26.217a6.554,6.554,0,0,0,0-13.108V9.831h13a4.9,4.9,0,0,1,4.876,4.916v2.887l0,0a4.949,4.949,0,0,0-.362,6.949l.351.385a4.9,4.9,0,0,1-4.86,4.522ZM17.88,15.566a2.438,2.438,0,1,1-2.438-2.458A2.449,2.449,0,0,1,17.88,15.566Zm0,8.193A2.438,2.438,0,1,1,15.442,21.3,2.449,2.449,0,0,1,17.88,23.759Z" fill="#05a1c2"></path></svg>