<svg xmlns="http://www.w3.org/2000/svg" width="47.853" height="36.179" viewBox="0 0 47.853 36.179"><path id="deporte-de-cancha" d="M37.884,3H9.969A10.021,10.021,0,0,0,0,13.05v16.08a10.021,10.021,0,0,0,9.969,10.05H37.884a10.021,10.021,0,0,0,9.969-10.05V13.05A10.021,10.021,0,0,0,37.884,3Zm5.982,22.109H39.878V17.07h3.988Zm-19.939,0a4.02,4.02,0,1,1,3.988-4.02A4.008,4.008,0,0,1,23.927,25.109ZM3.988,17.07H7.976v8.04H3.988Zm0,12.06H7.976a4.008,4.008,0,0,0,3.988-4.02V17.07a4.008,4.008,0,0,0-3.988-4.02H3.988A6.013,6.013,0,0,1,9.969,7.02H21.933v6.315a8.017,8.017,0,0,0,0,15.509v6.315H9.969A6.013,6.013,0,0,1,3.988,29.129Zm33.9,6.03H25.92V28.844a8.017,8.017,0,0,0,0-15.509V7.02H37.884a6.013,6.013,0,0,1,5.982,6.03H39.878a4.008,4.008,0,0,0-3.988,4.02v8.04a4.008,4.008,0,0,0,3.988,4.02h3.988A6.013,6.013,0,0,1,37.884,35.159Z" transform="translate(0 -3)" fill="#05a1c2"></path></svg>