<svg xmlns="http://www.w3.org/2000/svg" width="30.645" height="33.431" viewBox="0 0 30.645 33.431"><path id="dolar-de-saco_1_" data-name="dolar-de-saco (1)" d="M20.011,7.651a9.957,9.957,0,0,0,3.1-3.885,2.714,2.714,0,0,0-.286-2.53A2.811,2.811,0,0,0,20.5,0H12.144A2.811,2.811,0,0,0,9.816,1.237a2.718,2.718,0,0,0-.286,2.53,9.967,9.967,0,0,0,3.1,3.885C6.148,10.058,1,18.33,1,25.073a8.366,8.366,0,0,0,8.358,8.358H23.287a8.366,8.366,0,0,0,8.358-8.358C31.645,18.33,26.5,10.058,20.011,7.651Zm.514-4.914c-.719,1.807-2.917,3.333-4.205,4.053-1.286-.715-3.475-2.229-4.177-4l8.383-.049Zm2.761,27.908H9.358a5.577,5.577,0,0,1-5.572-5.572c0-7.3,6.561-15.322,12.536-15.322S28.859,17.77,28.859,25.073a5.577,5.577,0,0,1-5.572,5.572Zm-6.965,0a1.393,1.393,0,0,1-1.393-1.393V27.859h-.373a4.192,4.192,0,0,1-3.619-2.088,1.393,1.393,0,0,1,2.411-1.394,1.4,1.4,0,0,0,1.208.7h3.159a1.4,1.4,0,0,0,1.393-1.393,1.07,1.07,0,0,0-.9-1.059l-4.237-.706a3.847,3.847,0,0,1-3.225-3.807,4.184,4.184,0,0,1,4.179-4.179V12.536a1.393,1.393,0,1,1,2.786,0v1.393h.373A4.2,4.2,0,0,1,21.7,16.019a1.393,1.393,0,0,1-2.411,1.394,1.4,1.4,0,0,0-1.208-.7H14.927a1.4,1.4,0,0,0-1.393,1.393,1.07,1.07,0,0,0,.9,1.059l4.237.706a3.847,3.847,0,0,1,3.225,3.807,4.184,4.184,0,0,1-4.179,4.179v1.393a1.393,1.393,0,0,1-1.393,1.393Z" transform="translate(-1)" fill="#00a3c1"></path></svg>