<svg xmlns="http://www.w3.org/2000/svg" width="33.635" height="33.635" viewBox="0 0 33.635 33.635"><path id="encuesta-cuadrada-horizontal" d="M26.628,0H7.007A7.01,7.01,0,0,0,0,7.007V26.628a7.01,7.01,0,0,0,7.007,7.007H26.628a7.01,7.01,0,0,0,7.007-7.007V7.007A7.01,7.01,0,0,0,26.628,0Zm4.2,26.628a4.217,4.217,0,0,1-4.2,4.2H7.007a4.217,4.217,0,0,1-4.2-4.2V7.007a4.217,4.217,0,0,1,4.2-4.2H26.628a4.217,4.217,0,0,1,4.2,4.2Zm-4.2-7.007a1.406,1.406,0,0,1-1.4,1.4H12.613a1.4,1.4,0,1,1,0-2.8H25.226A1.406,1.406,0,0,1,26.628,19.621Zm0,5.606a1.406,1.406,0,0,1-1.4,1.4H16.818a1.4,1.4,0,1,1,0-2.8h8.409A1.406,1.406,0,0,1,26.628,25.226Zm0-11.212a1.406,1.406,0,0,1-1.4,1.4H8.409a1.4,1.4,0,1,1,0-2.8H25.226A1.406,1.406,0,0,1,26.628,14.015Zm0-5.606a1.406,1.406,0,0,1-1.4,1.4h-4.2a1.4,1.4,0,1,1,0-2.8h4.2A1.406,1.406,0,0,1,26.628,8.409Z" fill="#01a2c2"></path></svg>