<svg xmlns="http://www.w3.org/2000/svg" xmlns:xlink="http://www.w3.org/1999/xlink" width="39.222" height="39.222" viewBox="0 0 39.222 39.222"><defs><clipPath id="clip-path"><path id="path1659" d="M0-682.665H39.222v39.222H0Z" transform="translate(0 682.665)" fill="#00a3c1"></path></clipPath></defs><g id="g1657" clip-path="url(#clip-path)"><g id="g1663" transform="translate(3.524 28.88)"><path id="path1665" d="M-113.105-150.807V-157.7a2.3,2.3,0,0,0-2.3-2.3H-120" transform="translate(120 160)" fill="none" stroke="#00a3c1" stroke-linecap="round" stroke-linejoin="round" stroke-miterlimit="10" stroke-width="2"></path></g><g id="g1667" transform="translate(1.149 19.687)"><path id="path1669" d="M-38.958-301.614v-9.193L-41.333-320" transform="translate(41.333 319.999)" fill="none" stroke="#00a3c1" stroke-linecap="round" stroke-linejoin="round" stroke-miterlimit="10" stroke-width="2"></path></g><g id="g1671" transform="translate(28.803 28.88)"><path id="path1673" d="M0-150.807V-157.7A2.3,2.3,0,0,1,2.3-160h4.6" transform="translate(0 160)" fill="none" stroke="#00a3c1" stroke-linecap="round" stroke-linejoin="round" stroke-miterlimit="10" stroke-width="2"></path></g><g id="g1675" transform="translate(35.698 19.687)"><path id="path1677" d="M0-301.614v-9.193L2.375-320" transform="translate(0 319.999)" fill="none" stroke="#00a3c1" stroke-linecap="round" stroke-linejoin="round" stroke-miterlimit="10" stroke-width="2"></path></g><g id="g1679" transform="translate(1.149 1.149)"><path id="path1681" d="M-302.871,0l-18.462,9.269h36.924Z" transform="translate(321.333)" fill="none" stroke="#00a3c1" stroke-linecap="round" stroke-linejoin="round" stroke-miterlimit="10" stroke-width="2"></path></g><g id="g1683" transform="translate(19.611 10.418)"><path id="path1685" d="M0,0V13.865" fill="none" stroke="#00a3c1" stroke-linecap="round" stroke-linejoin="round" stroke-miterlimit="10" stroke-width="2"></path></g><g id="g1687" transform="translate(19.611 28.88)"><path id="path1689" d="M0,0V9.193" fill="none" stroke="#00a3c1" stroke-linecap="round" stroke-linejoin="round" stroke-miterlimit="10" stroke-width="2"></path></g><g id="g1691" transform="translate(10.418 24.284)"><path id="path1693" d="M0,0H18.385" fill="none" stroke="#00a3c1" stroke-linecap="round" stroke-linejoin="round" stroke-miterlimit="10" stroke-width="2"></path></g><g id="g1695" transform="translate(15.015 38.073)"><path id="path1697" d="M0,0H9.193" fill="none" stroke="#00a3c1" stroke-linecap="round" stroke-linejoin="round" stroke-miterlimit="10" stroke-width="2"></path></g><g id="g1699" transform="translate(15.015 24.284)"><path id="path1701" d="M-150.807,0a4.6,4.6,0,0,1-4.6,4.6A4.6,4.6,0,0,1-160,0" transform="translate(160)" fill="none" stroke="#00a3c1" stroke-linecap="round" stroke-linejoin="round" stroke-miterlimit="10" stroke-width="2"></path></g><g id="g1703" transform="translate(3.524 33.476)"><path id="path1705" d="M0,0H6.894" fill="none" stroke="#00a3c1" stroke-linecap="round" stroke-linejoin="round" stroke-miterlimit="10" stroke-width="2"></path></g><g id="g1707" transform="translate(28.803 33.476)"><path id="path1709" d="M0,0H6.894" fill="none" stroke="#00a3c1" stroke-linecap="round" stroke-linejoin="round" stroke-miterlimit="10" stroke-width="2"></path></g><g id="g1711" transform="translate(12.716 1.149)"><path id="path1713" d="M0-152.064l6.894-9.269,6.894,9.269" transform="translate(0 161.333)" fill="none" stroke="#00a3c1" stroke-linecap="round" stroke-linejoin="round" stroke-miterlimit="10" stroke-width="2"></path></g></g></svg>