<svg xmlns="http://www.w3.org/2000/svg" xmlns:xlink="http://www.w3.org/1999/xlink" id="g2433" width="39.743" height="39.743" viewBox="0 0 39.743 39.743"><defs><clipPath id="clip-path"><path id="path2439" d="M0-682.665H39.743v39.743H0Z" transform="translate(0 682.665)" fill="#00a3c1"></path></clipPath></defs><g id="g2435" transform="translate(0 0)"><g id="g2437" clip-path="url(#clip-path)"><path id="path2443" d="M105.99-396.712h-4.657V-420h4.657Z" transform="translate(-95.434 435.291)" fill="none" stroke="#00a3c1" stroke-linecap="round" stroke-linejoin="round" stroke-miterlimit="10" stroke-width="2"></path><g id="g2445" transform="translate(8.228 1.164)"><path id="path2447" d="M0-228.539v-9.47a4.657,4.657,0,0,1,4.657-4.657h9.315a4.657,4.657,0,0,1,4.657,4.657v2.484" transform="translate(0 242.666)" fill="none" stroke="#00a3c1" stroke-linecap="round" stroke-linejoin="round" stroke-miterlimit="10" stroke-width="2"></path></g><g id="g2449" transform="translate(24.529 8.306)"><path id="path2451" d="M0-75.342v-2.329A2.329,2.329,0,0,1,2.329-80a2.329,2.329,0,0,1,2.329,2.329v2.329" transform="translate(0 80)" fill="none" stroke="#00a3c1" stroke-linecap="round" stroke-linejoin="round" stroke-miterlimit="10" stroke-width="2"></path></g><g id="g2453" transform="translate(19.872 12.963)"><path id="path2455" d="M-226.027-75.342H-240A4.657,4.657,0,0,1-235.342-80h4.657A4.657,4.657,0,0,1-226.027-75.342Z" transform="translate(239.999 80)" fill="none" stroke="#00a3c1" stroke-linecap="round" stroke-linejoin="round" stroke-miterlimit="10" stroke-width="2"></path></g><g id="g2457" transform="translate(10.557 26.935)"><path id="path2459" d="M0,0H4.657" fill="none" stroke="#00a3c1" stroke-linecap="round" stroke-linejoin="round" stroke-miterlimit="10" stroke-width="2"></path></g><g id="g2461" transform="translate(15.214 24.607)"><path id="path2463" d="M0,0V4.657" fill="none" stroke="#00a3c1" stroke-linecap="round" stroke-linejoin="round" stroke-miterlimit="10" stroke-width="2"></path></g><g id="g2465" transform="translate(22.2 22.278)"><path id="path2467" d="M0,0V2.329" fill="none" stroke="#00a3c1" stroke-linecap="round" stroke-linejoin="round" stroke-miterlimit="10" stroke-width="2"></path></g><g id="g2469" transform="translate(26.858 22.278)"><path id="path2471" d="M0,0V2.329" fill="none" stroke="#00a3c1" stroke-linecap="round" stroke-linejoin="round" stroke-miterlimit="10" stroke-width="2"></path></g><g id="g2473" transform="translate(31.515 22.278)"><path id="path2475" d="M0,0V2.329" fill="none" stroke="#00a3c1" stroke-linecap="round" stroke-linejoin="round" stroke-miterlimit="10" stroke-width="2"></path></g><g id="g2477" transform="translate(22.2 29.264)"><path id="path2479" d="M0,0V2.329" fill="none" stroke="#00a3c1" stroke-linecap="round" stroke-linejoin="round" stroke-miterlimit="10" stroke-width="2"></path></g><g id="g2481" transform="translate(26.858 29.264)"><path id="path2483" d="M0,0V2.329" fill="none" stroke="#00a3c1" stroke-linecap="round" stroke-linejoin="round" stroke-miterlimit="10" stroke-width="2"></path></g><g id="g2485" transform="translate(31.515 29.264)"><path id="path2487" d="M0,0V2.329" fill="none" stroke="#00a3c1" stroke-linecap="round" stroke-linejoin="round" stroke-miterlimit="10" stroke-width="2"></path></g><g id="g2489" transform="translate(29.186 36.25)"><path id="path2491" d="M0,0V2.329" fill="none" stroke="#00a3c1" stroke-linecap="round" stroke-linejoin="round" stroke-miterlimit="10" stroke-width="2"></path></g><g id="g2493" transform="translate(24.529 36.25)"><path id="path2495" d="M0,0V2.329" fill="none" stroke="#00a3c1" stroke-linecap="round" stroke-linejoin="round" stroke-miterlimit="10" stroke-width="2"></path></g></g></g></svg>