<svg xmlns="http://www.w3.org/2000/svg" xmlns:xlink="http://www.w3.org/1999/xlink" id="g2631" width="44.134" height="44.134" viewBox="0 0 44.134 44.134"><defs><clipPath id="clip-path"><path id="path2641" d="M0-682.665H44.134v44.134H0Z" transform="translate(0 682.665)" fill="#00a3c1"></path></clipPath></defs><g id="g2633" transform="translate(14.905 33.903)"><path id="path2635" d="M0,0V5.629" transform="translate(0)" fill="none" stroke="#00a3c1" stroke-linecap="round" stroke-linejoin="round" stroke-miterlimit="10" stroke-width="2"></path></g><g id="g2637" transform="translate(0 0)"><g id="g2639" clip-path="url(#clip-path)"><g id="g2645" transform="translate(10.102 39.532)"><path id="path2647" d="M-139.366-26.6h0a3.009,3.009,0,0,0-2.772-1.839h-4.088A3.009,3.009,0,0,0-149-26.6" transform="translate(148.998 28.44)" fill="none" stroke="#00a3c1" stroke-linecap="round" stroke-linejoin="round" stroke-miterlimit="10" stroke-width="2"></path></g><g id="g2649" transform="translate(33.875 36.605)"><path id="path2651" d="M0,0H2.157" fill="none" stroke="#00a3c1" stroke-linecap="round" stroke-linejoin="round" stroke-miterlimit="10" stroke-width="2"></path></g><g id="g2653" transform="translate(33.875 27.158)"><path id="path2655" d="M0,0H2.157" fill="none" stroke="#00a3c1" stroke-linecap="round" stroke-linejoin="round" stroke-miterlimit="10" stroke-width="2"></path></g><g id="g2657" transform="translate(41.21 22.393)"><path id="path2659" d="M0-183.747v-12.7" transform="translate(0 196.448)" fill="none" stroke="#00a3c1" stroke-linecap="round" stroke-linejoin="round" stroke-miterlimit="10" stroke-width="2"></path></g><g id="g2661" transform="translate(28.696 22.393)"><path id="path2663" d="M0,0V18.221a.756.756,0,0,0,.756.756h11a.756.756,0,0,0,.756-.756v-2.5" fill="none" stroke="#00a3c1" stroke-linecap="round" stroke-linejoin="round" stroke-miterlimit="10" stroke-width="2"></path></g><g id="g2665" transform="translate(2.829 22.393)"><path id="path2667" d="M0,0V18.33a.647.647,0,0,0,.647.647H2.011a.647.647,0,0,0,.647-.647V0" fill="none" stroke="#00a3c1" stroke-linecap="round" stroke-linejoin="round" stroke-miterlimit="10" stroke-width="2"></path></g><g id="g2669" transform="translate(0.646 19.379)"><path id="path2671" d="M-101.144,0h-6.288a.7.7,0,0,0-.7.7V2.311a.7.7,0,0,0,.7.7h6.926" transform="translate(108.134)" fill="none" stroke="#00a3c1" stroke-linecap="round" stroke-linejoin="round" stroke-miterlimit="10" stroke-width="2"></path></g><g id="g2673" transform="translate(21.476 19.379)"><path id="path2675" d="M0-43.6H21.276a.7.7,0,0,0,.7-.7v-1.609a.7.7,0,0,0-.7-.7H.638" transform="translate(0 46.616)" fill="none" stroke="#00a3c1" stroke-linecap="round" stroke-linejoin="round" stroke-miterlimit="10" stroke-width="2"></path></g><g id="g2677" transform="translate(7.623 14.922)"><path id="path2679" d="M-209.667-64.492a4.119,4.119,0,0,0-4.1-4.458h-6.269a4.119,4.119,0,0,0-4.1,4.458,4.186,4.186,0,0,0,.086.568l.552,2.446.966,4.283a2.547,2.547,0,0,0,2.485,1.987h6.3a2.547,2.547,0,0,0,2.485-1.987l.966-4.283.552-2.446A4.169,4.169,0,0,0-209.667-64.492Z" transform="translate(224.158 68.949)" fill="none" stroke="#00a3c1" stroke-linecap="round" stroke-linejoin="round" stroke-miterlimit="10" stroke-width="2"></path></g><g id="g2681" transform="translate(8.564 30.971)"><path id="path2683" d="M-169.313-42.415h-10.782a.921.921,0,0,1-.921-.921h0a2.011,2.011,0,0,1,2.011-2.011h8.6a2.011,2.011,0,0,1,2.011,2.011h0A.921.921,0,0,1-169.313-42.415Z" transform="translate(181.016 45.347)" fill="none" stroke="#00a3c1" stroke-linecap="round" stroke-linejoin="round" stroke-miterlimit="10" stroke-width="2"></path></g><g id="g2685" transform="translate(13.09 28.663)"><path id="path2687" d="M0,0,.278,2.309" fill="none" stroke="#00a3c1" stroke-linecap="round" stroke-linejoin="round" stroke-miterlimit="10" stroke-width="2"></path></g><g id="g2689" transform="translate(16.384 28.663)"><path id="path2691" d="M0-33.4l.278-2.309" transform="translate(0 35.711)" fill="none" stroke="#00a3c1" stroke-linecap="round" stroke-linejoin="round" stroke-miterlimit="10" stroke-width="2"></path></g><g id="g2693" transform="translate(28.696 31.84)"><path id="path2695" d="M-181.052,0h-12.514" transform="translate(193.566 0)" fill="none" stroke="#00a3c1" stroke-linecap="round" stroke-linejoin="round" stroke-miterlimit="10" stroke-width="2"></path></g><g id="g2697" transform="translate(24.24 2.764)"><path id="path2699" d="M0-58.938v-3.119a.955.955,0,0,1,.955-.954H18.293a.955.955,0,0,1,.955.954V-50.72a.955.955,0,0,1-.955.955H.955A.955.955,0,0,1,0-50.72v-5.193" transform="translate(0 63.012)" fill="none" stroke="#00a3c1" stroke-linecap="round" stroke-linejoin="round" stroke-miterlimit="10" stroke-width="2"></path></g><g id="g2701" transform="translate(24.24 13.319)"><path id="path2703" d="M-278.474,0h-19.248" transform="translate(297.722 0)" fill="none" stroke="#00a3c1" stroke-linecap="round" stroke-linejoin="round" stroke-miterlimit="10" stroke-width="2"></path></g><g id="g2705" transform="translate(35.857 16.01)"><path id="path2707" d="M-10.495-48.748l-.725-3.369" transform="translate(11.22 52.117)" fill="none" stroke="#00a3c1" stroke-linecap="round" stroke-linejoin="round" stroke-miterlimit="10" stroke-width="2"></path></g><g id="g2709" transform="translate(31.145 16.01)"><path id="path2711" d="M-10.495,0l-.725,3.369" transform="translate(11.22)" fill="none" stroke="#00a3c1" stroke-linecap="round" stroke-linejoin="round" stroke-miterlimit="10" stroke-width="2"></path></g></g></g></svg>