<svg xmlns="http://www.w3.org/2000/svg" xmlns:xlink="http://www.w3.org/1999/xlink" id="g69" width="39.743" height="39.743" viewBox="0 0 39.743 39.743"><defs><clipPath id="clip-path"><path id="path75" d="M0-682.665H39.743v39.743H0Z" transform="translate(0 682.665)" fill="#00a3c1"></path></clipPath></defs><g id="g71" transform="translate(0 0)"><g id="g73" clip-path="url(#clip-path)"><g id="g79" transform="translate(4.915 4.804)"><path id="path81" d="M0-186.824V-195.6a2.777,2.777,0,0,1,2.777-2.777H27.136a2.777,2.777,0,0,1,2.777,2.777v8.772" transform="translate(0 198.373)" fill="none" stroke="#00a3c1" stroke-linecap="round" stroke-linejoin="round" stroke-miterlimit="10" stroke-width="2"></path></g><g id="g83" transform="translate(1.164 21)"><path id="path85" d="M-581.911-189.809H-616.44a1.443,1.443,0,0,1-1.443-1.443V-200.1a1.443,1.443,0,0,1,1.443-1.443h34.529a1.443,1.443,0,0,1,1.443,1.443v8.848A1.443,1.443,0,0,1-581.911-189.809Z" transform="translate(617.883 201.542)" fill="none" stroke="#00a3c1" stroke-linecap="round" stroke-linejoin="round" stroke-miterlimit="10" stroke-width="2"></path></g><g id="g87" transform="translate(3.104 16.352)"><path id="path89" d="M-542.488-75.178v-1.833a2.815,2.815,0,0,0-2.815-2.814h-27.905a2.815,2.815,0,0,0-2.815,2.814v1.833" transform="translate(576.023 79.825)" fill="none" stroke="#00a3c1" stroke-linecap="round" stroke-linejoin="round" stroke-miterlimit="10" stroke-width="2"></path></g><g id="g91" transform="translate(8.788 11.705)"><path id="path93" d="M-124.405-75.178a1.438,1.438,0,0,0,1.438-1.438v-1.772a1.438,1.438,0,0,0-1.438-1.438h-6.252a1.438,1.438,0,0,0-1.438,1.438v1.772a1.438,1.438,0,0,0,1.438,1.438" transform="translate(132.096 79.825)" fill="none" stroke="#00a3c1" stroke-linecap="round" stroke-linejoin="round" stroke-miterlimit="10" stroke-width="2"></path></g><g id="g95" transform="translate(21.827 11.705)"><path id="path97" d="M-124.405-75.178a1.438,1.438,0,0,0,1.438-1.438v-1.772a1.438,1.438,0,0,0-1.438-1.438h-6.252a1.438,1.438,0,0,0-1.438,1.438v1.772a1.438,1.438,0,0,0,1.438,1.438" transform="translate(132.096 79.825)" fill="none" stroke="#00a3c1" stroke-linecap="round" stroke-linejoin="round" stroke-miterlimit="10" stroke-width="2"></path></g><g id="g99" transform="translate(3.642 32.733)"><path id="path101" d="M0,0V2.207" fill="none" stroke="#00a3c1" stroke-linecap="round" stroke-linejoin="round" stroke-miterlimit="10" stroke-width="2"></path></g><g id="g103" transform="translate(36.101 32.733)"><path id="path105" d="M0,0V2.207" fill="none" stroke="#00a3c1" stroke-linecap="round" stroke-linejoin="round" stroke-miterlimit="10" stroke-width="2"></path></g></g></g></svg>