<svg xmlns="http://www.w3.org/2000/svg" width="68" height="69" viewBox="0 0 68 69"><g id="Group_14742" data-name="Group 14742" transform="translate(-237 -594)"><rect id="Rectangle_8991" data-name="Rectangle 8991" width="68" height="69" rx="34" transform="translate(237 594)" fill="#061973"></rect><path id="dolar-de-saco_1_" data-name="dolar-de-saco (1)" d="M19.225,7.335A9.546,9.546,0,0,0,22.2,3.611a2.6,2.6,0,0,0-.274-2.425A2.7,2.7,0,0,0,19.695,0H11.683A2.7,2.7,0,0,0,9.451,1.186a2.606,2.606,0,0,0-.274,2.425,9.555,9.555,0,0,0,2.975,3.724C5.935,9.642,1,17.572,1,24.036a8.02,8.02,0,0,0,8.012,8.012H22.365a8.02,8.02,0,0,0,8.012-8.012C30.377,17.572,25.442,9.642,19.225,7.335Zm.493-4.711c-.689,1.732-2.8,3.2-4.031,3.886-1.233-.685-3.332-2.137-4-3.839l8.036-.047Zm2.647,26.754H9.012a5.347,5.347,0,0,1-5.341-5.341c0-7,6.289-14.689,12.018-14.689s12.018,7.688,12.018,14.689a5.347,5.347,0,0,1-5.341,5.341Zm-6.677,0a1.336,1.336,0,0,1-1.335-1.335V26.707h-.358a4.018,4.018,0,0,1-3.469-2,1.335,1.335,0,0,1,2.311-1.337,1.342,1.342,0,0,0,1.158.668h3.029A1.338,1.338,0,0,0,18.358,22.7a1.026,1.026,0,0,0-.86-1.015l-4.062-.677a3.688,3.688,0,0,1-3.091-3.649,4.011,4.011,0,0,1,4.006-4.006V12.018a1.335,1.335,0,1,1,2.671,0v1.335h.358a4.021,4.021,0,0,1,3.469,2,1.335,1.335,0,1,1-2.311,1.337,1.341,1.341,0,0,0-1.158-.668H14.351a1.338,1.338,0,0,0-1.335,1.335,1.026,1.026,0,0,0,.86,1.015l4.062.677A3.688,3.688,0,0,1,21.029,22.7a4.011,4.011,0,0,1-4.006,4.006v1.335a1.336,1.336,0,0,1-1.335,1.335Z" transform="translate(255 612)" fill="#fff"></path></g></svg>