<svg xmlns="http://www.w3.org/2000/svg" width="68" height="69" viewBox="0 0 68 69"><g id="Group_14743" data-name="Group 14743" transform="translate(-604 -594)"><rect id="Rectangle_8992" data-name="Rectangle 8992" width="68" height="69" rx="34" transform="translate(604 594)" fill="#061973"></rect><g id="hogar" transform="translate(624 615.835)"><path id="Path_26" data-name="Path 26" d="M25.083,9.493,17.347,1.757a6.012,6.012,0,0,0-8.492,0L1.119,9.493A3.8,3.8,0,0,0,0,12.2v11.33A2.683,2.683,0,0,0,2.68,26.2H23.522a2.682,2.682,0,0,0,2.68-2.678V12.2A3.8,3.8,0,0,0,25.083,9.493ZM22.927,22.928H17.468V19.454A4.168,4.168,0,0,0,13.3,15.286h-.4a4.168,4.168,0,0,0-4.168,4.168h0v3.474H3.275V12.2a.551.551,0,0,1,.159-.386l7.736-7.736a2.729,2.729,0,0,1,3.86,0h0l7.736,7.736a.552.552,0,0,1,.159.386V22.928Z" transform="translate(0 -0.001)" fill="#fff"></path></g></g></svg>