<svg xmlns="http://www.w3.org/2000/svg" width="68" height="69" viewBox="0 0 68 69"><g id="Group_14748" data-name="Group 14748" transform="translate(-576 -2429)"><g id="Group_14744" data-name="Group 14744"><rect id="Rectangle_82" data-name="Rectangle 82" width="68" height="69" rx="34" transform="translate(576 2429)" fill="#061973"></rect></g><path id="auriculares" d="M27,14.571V12.564a11.57,11.57,0,1,0-23.14,0v2.007A6.822,6.822,0,0,0,0,20.694v.468A6.844,6.844,0,0,0,6.837,28h.234a3.214,3.214,0,0,0,3.214-3.214V17.071a3.214,3.214,0,0,0-2.57-3.148V12.564a7.713,7.713,0,0,1,15.427,0v1.359a3.214,3.214,0,0,0-2.571,3.148v7.071H18.641a1.928,1.928,0,0,0,0,3.857h5.376a6.844,6.844,0,0,0,6.837-6.837v-.468A6.822,6.822,0,0,0,27,14.571ZM6.428,24.113a2.984,2.984,0,0,1-2.571-2.957v-.468a2.984,2.984,0,0,1,2.571-2.957ZM27,21.157a2.984,2.984,0,0,1-2.571,2.957V17.742A2.984,2.984,0,0,1,27,20.7Z" transform="translate(594.7 2448.968)" fill="#fff"></path></g></svg>