<svg xmlns="http://www.w3.org/2000/svg" width="68" height="69" viewBox="0 0 68 69"><g id="Group_14747" data-name="Group 14747" transform="translate(-820 -2429)"><g id="Group_14746" data-name="Group 14746"><g id="Group_14745" data-name="Group 14745"><rect id="Rectangle_83" data-name="Rectangle 83" width="68" height="69" rx="34" transform="translate(820 2429)" fill="#061973"></rect></g></g><path id="sosteniendo-la-llave-con-la-mano" d="M13.936,6.387a1.742,1.742,0,1,1,1.742,1.742A1.743,1.743,0,0,1,13.936,6.387ZM.718,8.027A2.329,2.329,0,0,1,.711,4.75L2.335,3.11a1.733,1.733,0,0,1,1.233-.516h0A1.738,1.738,0,0,1,4.8,3.1l.4.4L5.63,3.09A1.746,1.746,0,0,1,8.085,3.1l.583.526.249-.247A6.279,6.279,0,0,1,14.339,0a6.374,6.374,0,0,1,6.242,4.331,6.406,6.406,0,0,1-6.063,8.442,6.38,6.38,0,0,1-4.925-2.323H4.586a3.46,3.46,0,0,1-2.463-1.02L.718,8.028ZM2.36,6.385l1.405,1.4a1.153,1.153,0,0,0,.821.339h5.587a1.163,1.163,0,0,1,.965.514,4.062,4.062,0,0,0,6.66.142,4.152,4.152,0,0,0,.568-3.75A4.107,4.107,0,0,0,14.4,2.324a4.044,4.044,0,0,0-3.549,2.352C10.8,4.764,9.53,6.047,9.53,6.047a1.161,1.161,0,0,1-1.6.041L6.869,5.13l-.852.841a1.158,1.158,0,0,1-1.636-.006l-.806-.8L2.36,6.386Zm24.625,9.89-6.868,7.709a11.62,11.62,0,0,1-8.672,3.888h-6.8A4.65,4.65,0,0,1,0,23.227V18.582a4.65,4.65,0,0,1,4.645-4.645H14.932A3.647,3.647,0,0,1,18.054,15.7l3.736-4.1a3.5,3.5,0,0,1,5.195,4.68Zm-1.819-3.194a1.183,1.183,0,0,0-1.657.077l-5.141,5.65a3.672,3.672,0,0,1-2.92,2.39l-5.994.856a1.161,1.161,0,1,1-.329-2.3L15.12,18.9a1.327,1.327,0,0,0-.189-2.64H4.645a2.325,2.325,0,0,0-2.323,2.323v4.645a2.325,2.325,0,0,0,2.323,2.323h6.8a9.3,9.3,0,0,0,6.937-3.11l6.869-7.71a1.177,1.177,0,0,0-.085-1.648Z" transform="translate(839.649 2449.525)" fill="#fff" stroke="#fff" stroke-width="1"></path></g></svg>