<svg xmlns="http://www.w3.org/2000/svg" xmlns:xlink="http://www.w3.org/1999/xlink" id="Group_14697" data-name="Group 14697" width="78.155" height="78.155" viewBox="0 0 78.155 78.155"><defs><clipPath id="clip-path"><rect id="Rectangle_8967" data-name="Rectangle 8967" width="78.155" height="78.155" fill="none"></rect></clipPath></defs><rect id="Rectangle_8965" data-name="Rectangle 8965" width="78.155" height="78.155" rx="13" fill="#282074"></rect><g id="Group_14696" data-name="Group 14696"><g id="Group_14695" data-name="Group 14695" clip-path="url(#clip-path)"><path id="Path_12796" data-name="Path 12796" d="M121.953,159.777c.07.032.141.07.209.109v0c-.068-.038-.138-.076-.209-.112" transform="translate(-88.708 -116.221)" fill="#6160a6"></path><path id="Path_12797" data-name="Path 12797" d="M148.23,137.394H164.4v-16.16H148.23Zm1.122-15.04h6.223a9.823,9.823,0,0,0-.252,3.68,3.42,3.42,0,0,0-1.434.859,3.369,3.369,0,0,0-.856,1.429,9.925,9.925,0,0,0-3.681.251Zm0,13.922v-6.223a9.852,9.852,0,0,0,3.679.253,3.364,3.364,0,0,0,.858,1.432,3.419,3.419,0,0,0,1.434.86,9.736,9.736,0,0,0,.255,3.678Zm6.207-5.456a1.716,1.716,0,0,1-.436-.317,1.635,1.635,0,0,1-.313-.438,1.676,1.676,0,0,1,0-1.5,1.653,1.653,0,0,1,.313-.439,1.684,1.684,0,0,1,.44-.315,1.669,1.669,0,0,1,1.5,0,1.737,1.737,0,0,1,.437.315,1.62,1.62,0,0,1,.312.439,1.682,1.682,0,0,1,0,1.5,1.6,1.6,0,0,1-.312.438,1.731,1.731,0,0,1-.437.317,1.7,1.7,0,0,1-1.508,0m7.716,5.456h-6.226a9.885,9.885,0,0,0,.255-3.678,3.452,3.452,0,0,0,2.293-2.292,9.847,9.847,0,0,0,3.677-.253Zm0-7.7a9.937,9.937,0,0,0-3.683-.251,3.43,3.43,0,0,0-2.287-2.288,9.968,9.968,0,0,0-.252-3.68h6.223Z" transform="translate(-107.821 -88.185)" fill="#fff"></path><path id="Path_12798" data-name="Path 12798" d="M107.4,80.42a1.241,1.241,0,0,1-.245.336,1.19,1.19,0,0,1-.333.243,1.3,1.3,0,0,1-1.161,0,1.226,1.226,0,0,1-.332-.243,1.281,1.281,0,0,1-.243-.336,1.3,1.3,0,0,1,0-1.156,1.356,1.356,0,0,1,.243-.336,1.292,1.292,0,0,1,1.826,0,1.284,1.284,0,0,1,.245,1.493" transform="translate(-76.339 -57.136)" fill="#fff"></path><path id="Path_12799" data-name="Path 12799" d="M80.051,69.153H96.213V52.991H80.051Zm1.12-15.041h5.935c-.922.812-1.3,2.682-1.042,5.075-2.224-.244-4,.069-4.893.858Zm0,13.92V62.462c.891.787,2.669,1.1,4.893.857-.224,2.088.034,3.781.715,4.714Zm7.043-.6a.121.121,0,0,1-.164,0c-.4-.261-.869-1.461-.68-3.656a2.636,2.636,0,0,1-1.764-1.759c-2.192.189-3.393-.279-3.657-.683a.12.12,0,0,1,0-.16c.264-.406,1.466-.874,3.66-.684a2.618,2.618,0,0,1,.657-1.1,2.656,2.656,0,0,1,1.1-.659c-.189-2.193.277-3.4.68-3.657a.117.117,0,0,1,.164,0c.4.261.867,1.463.679,3.657a2.624,2.624,0,0,1,1.759,1.759c2.2-.19,3.4.279,3.658.684.046.065.046.091,0,.16-.261.4-1.458.873-3.655.683a2.644,2.644,0,0,1-.66,1.1,2.613,2.613,0,0,1-1.1.659c.188,2.2-.28,3.395-.679,3.656m6.88.6H89.483a7.113,7.113,0,0,0,.716-4.714c2.229.244,4.005-.07,4.895-.858Zm0-7.986c-.89-.791-2.666-1.1-4.895-.86.26-2.395-.123-4.265-1.042-5.075h5.937Z" transform="translate(-58.228 -38.545)" fill="#fff"></path><path id="Path_12800" data-name="Path 12800" d="M109.942,159.777c-.073.036-.142.074-.21.112v0a2.322,2.322,0,0,1,.21-.109" transform="translate(-79.818 -116.221)" fill="#75c5f1"></path><path id="Path_12801" data-name="Path 12801" d="M105.983,146.041a1.44,1.44,0,1,1-1.01-.414,1.433,1.433,0,0,1,1.01.414" transform="translate(-75.316 -105.928)" fill="#75c5f1"></path><path id="Path_12802" data-name="Path 12802" d="M79.156,137.394H95.32v-16.16H79.156Zm12.744-6.01a.765.765,0,0,1-.742.22,3.122,3.122,0,0,1-1.406-.835,2.726,2.726,0,0,1-.449.591l-.018.019a2.839,2.839,0,0,1-.592.452s0,0,0,0h0c1.133,1.25.882,1.873.616,2.142a3.689,3.689,0,0,1-4.148,0c-.267-.269-.516-.892.615-2.142h.008a.009.009,0,0,1-.008,0,2.885,2.885,0,0,1-.589-.452l-.019-.021a2.843,2.843,0,0,1-.449-.589c-.773.694-1.441.984-1.879.8-.519-.215-.9-1.165-.9-2.26s.381-2.041.9-2.26c.438-.177,1.106.113,1.879.8h0a2.544,2.544,0,0,1,.449-.593l.011-.01a.038.038,0,0,0,.008-.008,2.833,2.833,0,0,1,.593-.452c-1.136-1.249-.886-1.875-.619-2.141a3.681,3.681,0,0,1,4.148,0c.266.266.517.892-.616,2.141a2.793,2.793,0,0,1,.592.452l.009.008.009.009a2.547,2.547,0,0,1,.449.594,3.115,3.115,0,0,1,1.406-.838.76.76,0,0,1,.742.219,3.693,3.693,0,0,1,0,4.146" transform="translate(-57.577 -88.185)" fill="#75c5f1"></path><path id="Path_12803" data-name="Path 12803" d="M105.983,146.041a1.43,1.43,0,1,0,0,2.023,1.436,1.436,0,0,0,0-2.023" transform="translate(-75.316 -105.928)" fill="#75c5f1"></path><path id="Path_12804" data-name="Path 12804" d="M105.983,146.041a1.43,1.43,0,1,0,0,2.023,1.436,1.436,0,0,0,0-2.023" transform="translate(-75.316 -105.928)" fill="#75c5f1"></path><path id="Path_12805" data-name="Path 12805" d="M169.807,69.475a.636.636,0,0,0-.632-.187,2.65,2.65,0,0,0-1.195.712,2.365,2.365,0,0,0-.382-.507l-.008,0a.052.052,0,0,0-.01-.007,2.4,2.4,0,0,0-.5-.387c.964-1.065.751-1.6.524-1.826a3.14,3.14,0,0,0-3.535,0c-.23.229-.441.761.523,1.826a2.4,2.4,0,0,0-.5.387.024.024,0,0,0-.008.007l-.011.009a2.424,2.424,0,0,0-.384.5v0c-.655-.59-1.227-.837-1.6-.685-.446.184-.769,1-.769,1.924s.323,1.742.769,1.925c.371.155.943-.093,1.6-.683a2.353,2.353,0,0,0,.384.5l.019.018a2.339,2.339,0,0,0,.5.385.437.437,0,0,0,.049.026.466.466,0,0,1-.05-.022c-.963,1.065-.751,1.6-.522,1.825a3.139,3.139,0,0,0,3.535,0c.227-.23.44-.76-.525-1.825l-.044.021.045-.025a2.312,2.312,0,0,0,.5-.385l.018-.014a2.38,2.38,0,0,0,.382-.5,2.688,2.688,0,0,0,1.195.712.651.651,0,0,0,.632-.188,3.133,3.133,0,0,0,0-3.533M166.7,72.1a1.216,1.216,0,1,1,0-1.724,1.225,1.225,0,0,1,0,1.724" transform="translate(-117.343 -48.535)" fill="#75c5f1"></path><path id="Path_12806" data-name="Path 12806" d="M148.242,69.815h16.165V53.653H148.242Zm12.948-5.422a1.9,1.9,0,0,1-1.656.554,1.9,1.9,0,0,1-.555,1.651,4.323,4.323,0,0,1-5.318,0,1.9,1.9,0,0,1-.554-1.655,1.93,1.93,0,0,1-1.017-.118c-1.14-.472-1.545-1.906-1.545-3.091s.4-2.621,1.545-3.095a1.932,1.932,0,0,1,1.017-.119,1.909,1.909,0,0,1,.554-1.656,4.33,4.33,0,0,1,5.318,0,1.91,1.91,0,0,1,.555,1.656,1.9,1.9,0,0,1,1.656.555,4.331,4.331,0,0,1,0,5.316" transform="translate(-107.83 -39.027)" fill="#75c5f1"></path><path id="Path_12807" data-name="Path 12807" d="M169.807,69.475a.636.636,0,0,0-.632-.187,2.65,2.65,0,0,0-1.195.712,2.365,2.365,0,0,0-.382-.507l-.008,0a.052.052,0,0,0-.01-.007,2.4,2.4,0,0,0-.5-.387c.964-1.065.751-1.6.524-1.826a3.14,3.14,0,0,0-3.535,0c-.23.229-.441.761.523,1.826a2.4,2.4,0,0,0-.5.387.024.024,0,0,0-.008.007l-.011.009a2.424,2.424,0,0,0-.384.5v0c-.655-.59-1.227-.837-1.6-.685-.446.184-.769,1-.769,1.924s.323,1.742.769,1.925c.371.155.943-.093,1.6-.683a2.353,2.353,0,0,0,.384.5l.019.018a2.339,2.339,0,0,0,.5.385.437.437,0,0,0,.049.026.466.466,0,0,1-.05-.022c-.963,1.065-.751,1.6-.522,1.825a3.139,3.139,0,0,0,3.535,0c.227-.23.44-.76-.525-1.825l-.044.021.045-.025a2.312,2.312,0,0,0,.5-.385l.018-.014a2.38,2.38,0,0,0,.382-.5,2.688,2.688,0,0,0,1.195.712.651.651,0,0,0,.632-.188,3.133,3.133,0,0,0,0-3.533M166.7,72.1a1.216,1.216,0,1,1,0-1.724,1.225,1.225,0,0,1,0,1.724" transform="translate(-117.343 -48.535)" fill="#75c5f1"></path><path id="Path_12808" data-name="Path 12808" d="M42.346,214.357a1.18,1.18,0,0,0-.248-.413,4.439,4.439,0,0,0-.319-.314,1.721,1.721,0,0,0-.39-.248q-.235-.112-.37-.174c-.091-.041-.207-.086-.347-.137s-.219-.077-.23-.084c-.062-.025-.154-.057-.273-.094l-.318-.1a2.644,2.644,0,0,1-.283-.114.637.637,0,0,1-.22-.155.275.275,0,0,1-.08-.182c0-.188.157-.282.469-.282a1.852,1.852,0,0,1,.877.215,1.752,1.752,0,0,1,.569.423l1.21-.816a2.015,2.015,0,0,0-.9-.942,2.946,2.946,0,0,0-1.558-.428,3.693,3.693,0,0,0-.891.1,2.723,2.723,0,0,0-.779.318,1.567,1.567,0,0,0-.567.6,1.811,1.811,0,0,0-.212.89,1.446,1.446,0,0,0,.127.61,1.635,1.635,0,0,0,.295.459,1.963,1.963,0,0,0,.436.338,3.012,3.012,0,0,0,.436.225c.113.044.254.1.422.155s.262.093.281.1q.095.037.277.094c.122.037.231.071.328.1a2.923,2.923,0,0,1,.291.112.862.862,0,0,1,.231.146.225.225,0,0,1,.084.164.324.324,0,0,1-.112.257.755.755,0,0,1-.469.1,1.79,1.79,0,0,1-1-.318,2.433,2.433,0,0,1-.652-.563l-1.239.9a2.492,2.492,0,0,0,.98,1.066,3.122,3.122,0,0,0,1.731.464,2.944,2.944,0,0,0,1.815-.511,1.723,1.723,0,0,0,.68-1.468,1.436,1.436,0,0,0-.085-.5" transform="translate(-27.077 -153.123)" fill="#fff"></path><path id="Path_12809" data-name="Path 12809" d="M62.354,210.924H61.181l-2.448,6.1h1.642l.261-.676H62.9l.263.676H64.8Zm-1.181,4.015.591-1.539.59,1.539Z" transform="translate(-42.722 -153.424)" fill="#fff"></path><path id="Path_12810" data-name="Path 12810" d="M85.983,215.613v-4.691H84.435v6.1h4.231v-1.407Z" transform="translate(-61.417 -153.423)" fill="#fff"></path><path id="Path_12811" data-name="Path 12811" d="M106.673,210.924H105.5l-2.448,6.1h1.641l.264-.676h2.26l.263.676h1.641Zm-1.182,4.015.591-1.539.591,1.539Z" transform="translate(-74.959 -153.424)" fill="#fff"></path><path id="Path_12812" data-name="Path 12812" d="M133.5,210.922l-1.6,3.181-1.594-3.181H128.76v6.1h1.547v-2.908l1.061,2.242h1.068l1.06-2.242v2.908h1.548v-6.1Z" transform="translate(-93.659 -153.423)" fill="#fff"></path><path id="Path_12813" data-name="Path 12813" d="M159.218,210.924h-1.173l-2.448,6.1h1.642l.262-.676h2.26l.264.676h1.642Zm-1.181,4.015.59-1.539.591,1.539Z" transform="translate(-113.18 -153.424)" fill="#fff"></path><path id="Path_12814" data-name="Path 12814" d="M184.888,210.922v3.331l-2.081-3.331h-1.5v6.1h1.547V213.7l2.083,3.321h1.5v-6.1Z" transform="translate(-131.88 -153.423)" fill="#fff"></path><path id="Path_12815" data-name="Path 12815" d="M208.383,215.153a1.327,1.327,0,0,1-.7.2,1.481,1.481,0,0,1-1.111-.441,1.725,1.725,0,0,1,0-2.271,1.584,1.584,0,0,1,1.825-.263,1.53,1.53,0,0,1,.515.432l1.239-.929a2.82,2.82,0,0,0-2.468-1.229,2.962,2.962,0,0,0-2.213.881,3.324,3.324,0,0,0-.005,4.485,2.98,2.98,0,0,0,2.218.881,2.819,2.819,0,0,0,2.468-1.229l-1.239-.966a2.034,2.034,0,0,1-.529.45" transform="translate(-148.823 -153.225)" fill="#fff"></path><path id="Path_12816" data-name="Path 12816" d="M230.829,210.924h-1.173l-2.447,6.1h1.641l.263-.676h2.26l.262.676h1.642Zm-1.183,4.015.592-1.539.59,1.539Z" transform="translate(-165.269 -153.424)" fill="#fff"></path><path id="Path_12817" data-name="Path 12817" d="M82.087,197.865l-.734,1.848-.739-1.848h-.37l.967,2.412h.279l.968-2.412Z" transform="translate(-58.369 -143.926)" fill="#fff"></path><rect id="Rectangle_8966" data-name="Rectangle 8966" width="0.348" height="2.411" transform="translate(26.389 53.94)" fill="#fff"></rect><path id="Path_12818" data-name="Path 12818" d="M107.407,199.957v-2.092h-.349v2.411h1.58v-.319Z" transform="translate(-77.873 -143.925)" fill="#fff"></path><path id="Path_12819" data-name="Path 12819" d="M121.913,199.957v-2.092h-.348v2.411h1.579v-.319Z" transform="translate(-88.425 -143.925)" fill="#fff"></path><path id="Path_12820" data-name="Path 12820" d="M136.915,197.866h-.267l-.987,2.411h.372l.211-.53h1.076l.211.53h.372Zm-.541,1.562.408-1.024.408,1.024Z" transform="translate(-98.679 -143.926)" fill="#fff"></path><path id="Path_12821" data-name="Path 12821" d="M153.821,199.29a.537.537,0,0,0-.071-.139.545.545,0,0,0-.111-.113,1.153,1.153,0,0,0-.126-.089,1.107,1.107,0,0,0-.144-.069c-.059-.023-.1-.04-.133-.049l-.125-.038-.09-.029-.12-.031c-.063-.016-.111-.03-.145-.039a1.28,1.28,0,0,1-.132-.048.537.537,0,0,1-.125-.067.325.325,0,0,1-.076-.087.217.217,0,0,1-.033-.116.27.27,0,0,1,.126-.239.659.659,0,0,1,.36-.083.92.92,0,0,1,.424.1.474.474,0,0,1,.239.222l.282-.174a.68.68,0,0,0-.328-.348,1.281,1.281,0,0,0-1.24.029.582.582,0,0,0-.257.516.613.613,0,0,0,.029.191.383.383,0,0,0,.1.154c.045.045.087.082.122.111a.6.6,0,0,0,.161.088l.151.058c.028.009.078.025.15.044l.111.03c.012,0,.058.017.138.038a1.493,1.493,0,0,1,.182.056c.041.016.091.039.15.068a.334.334,0,0,1,.133.108.248.248,0,0,1,.042.142q0,.373-.515.373a.925.925,0,0,1-.483-.126.626.626,0,0,1-.277-.285l-.283.193a.836.836,0,0,0,.362.406,1.214,1.214,0,0,0,.643.161,1.109,1.109,0,0,0,.691-.191.649.649,0,0,0,.249-.547.494.494,0,0,0-.031-.175" transform="translate(-110.496 -143.807)" fill="#fff"></path><path id="Path_12822" data-name="Path 12822" d="M179.516,198.2a1.156,1.156,0,0,0-.862-.334h-.844v2.412h.844a1.156,1.156,0,0,0,.862-.334,1.321,1.321,0,0,0,0-1.744m-.02.884a.8.8,0,0,1-.255.638.883.883,0,0,1-.586.219h-.495V198.2h.495a.933.933,0,0,1,.39.082.757.757,0,0,1,.317.288.891.891,0,0,1,.134.5Z" transform="translate(-129.338 -143.925)" fill="#fff"></path><path id="Path_12823" data-name="Path 12823" d="M195.633,198.185v-.319h-1.588v2.412h1.588v-.32h-1.239v-.727h1.162v-.319h-1.162v-.727Z" transform="translate(-141.147 -143.926)" fill="#fff"></path></g></g></svg>