<svg xmlns="http://www.w3.org/2000/svg" width="141.056" height="46.063" viewBox="0 0 141.056 46.063">
  <g id="Group_14742" data-name="Group 14742" transform="translate(-45 457)">
    <g id="Group_26" data-name="Group 26" transform="translate(45 -457)">
      <path id="Union_1" data-name="Union 1" d="M-29.085,475.241a4.871,4.871,0,0,0,4.091-4.766,4.844,4.844,0,0,0-2.471-4.2l-.639-.362-.065-.865a5.47,5.47,0,0,0-5.576-5.3,5.543,5.543,0,0,0-5.584,5.488,5.575,5.575,0,0,0,.042.682l.668,1.112-1.439.628a4.055,4.055,0,0,0-2.457,3.706,3.958,3.958,0,0,0,.025.44L-45,469.489a6.823,6.823,0,0,1,2.922-3.864c-.006-.127-.009-.254-.009-.38A8.3,8.3,0,0,1-33.746,457a8.22,8.22,0,0,1,8.287,7.292,7.59,7.59,0,0,1,3.221,6.183,7.5,7.5,0,0,1-1.708,4.766Zm-7.314,0V463.632h2.757v4.2l-2.186,1.449,2.186-1.449,2.182-1.446,1.524,2.3-3.705,2.456v4.1Z" transform="translate(133.082 -446.329)" fill="#64b22e" stroke="rgba(0,0,0,0)" stroke-miterlimit="10" stroke-width="1"/>
      <g id="Group_24" data-name="Group 24">
        <path id="Path_14" data-name="Path 14" d="M467.809,174.061h4.126l8.278-7.488,8.009,7.488h4.224l-12.436-11.437Z" transform="translate(-417.217 -145.037)" fill="#00a3c1"/>
        <path id="Path_15" data-name="Path 15" d="M393.279,111.745h3.833L413.743,96.7l16.09,15.045h4.359L413.539,92.752Z" transform="translate(-350.747 -82.721)" fill="#00a3c1"/>
        <path id="Path_16" data-name="Path 16" d="M318.746,49.427h3.54l24.984-22.6,24.1,22.533h4.493l-28.8-26.482Z" transform="translate(-284.275 -20.403)" fill="#00a3c1"/>
      </g>
      <path id="Path_17" data-name="Path 17" d="M308.077,11.68l2.757-2.571A10.508,10.508,0,1,0,298.3,20.795l2.749-2.563a7.833,7.833,0,0,1-1.589-.035,7.749,7.749,0,0,1-3.8-13.8A7.691,7.691,0,0,1,300.4,2.757a7.864,7.864,0,0,1,.972.061,7.749,7.749,0,0,1,6.733,8.646c-.009.072-.021.144-.032.216" transform="translate(-258.559 0)" fill="#f4d811"/>
    </g>
    <g id="Group_27" data-name="Group 27">
      <path id="Path_1" data-name="Path 1" d="M9.277,311.965l-3.354,7.813-3.441-7.813H0L5.548,324.29h.819l5.374-12.325Z" transform="translate(45 -735.227)" fill="#1c1c1c"/>
      <rect id="Rectangle_1" data-name="Rectangle 1" width="2.352" height="12.168" transform="translate(58.222 -423.262)" fill="#1c1c1c"/>
      <path id="Path_2" data-name="Path 2" d="M171.649,311.965V322.3h5.906v1.838H169.3V311.965Z" transform="translate(-105.988 -735.227)" fill="#1c1c1c"/>
      <path id="Path_3" data-name="Path 3" d="M262.9,311.965V322.3h5.906v1.838H260.55V311.965Z" transform="translate(-187.372 -735.227)" fill="#1c1c1c"/>
      <path id="Path_4" data-name="Path 4" d="M347.628,311.962,353,324.131h-2.483l-1.263-2.962h-5.409l-1.176,2.962h-2.465l5.017-12.169Zm-3.066,7.421h3.929l-2.056-4.816Z" transform="translate(-258.414 -735.224)" fill="#1c1c1c"/>
      <path id="Path_5" data-name="Path 5" d="M519.775,310.516a7.316,7.316,0,0,1,3.4.779,6.147,6.147,0,0,1,.026,10.9,7.693,7.693,0,0,1-6.881-.013,6.023,6.023,0,0,1-3.271-5.418,6.12,6.12,0,0,1,.862-3.145,5.987,5.987,0,0,1,2.378-2.286,7.244,7.244,0,0,1,3.484-.814m-4.294,6.245a4.333,4.333,0,0,0,.549,2.178,3.816,3.816,0,0,0,1.529,1.5,4.575,4.575,0,0,0,2.217.531,4.229,4.229,0,0,0,3.079-1.176,4.049,4.049,0,0,0,1.206-3.031,4.39,4.39,0,0,0-.545-2.182,3.767,3.767,0,0,0-1.533-1.5,4.91,4.91,0,0,0-4.451,0,3.721,3.721,0,0,0-1.52,1.5,4.438,4.438,0,0,0-.531,2.182" transform="translate(-412.566 -733.935)" fill="#1c1c1c"/>
      <path id="Path_6" data-name="Path 6" d="M659.978,311.965V322.3h5.906v1.838h-8.257V311.965Z" transform="translate(-541.506 -735.227)" fill="#1c1c1c"/>
      <rect id="Rectangle_2" data-name="Rectangle 2" width="2.352" height="12.168" transform="translate(126.041 -423.262)" fill="#1c1c1c"/>
      <path id="Path_7" data-name="Path 7" d="M798.515,311.965l4,4.8,4-4.8h2.1v12.168h-2.352v-8.545h-.069l-3.519,4.286h-.331l-3.519-4.286h-.07v8.545H796.4V311.965Z" transform="translate(-665.271 -735.227)" fill="#1c1c1c"/>
      <path id="Path_8" data-name="Path 8" d="M938.829,311.966a3.921,3.921,0,0,1,2.774.989,3.318,3.318,0,0,1,1.067,2.548,3.278,3.278,0,0,1-1.08,2.552,4.087,4.087,0,0,1-2.848.975h-2.265v5.1h-2.352V311.966Zm-.584,5.226a2.254,2.254,0,0,0,1.468-.431,1.552,1.552,0,0,0,.527-1.276q0-1.681-2.16-1.681h-1.6v3.388Z" transform="translate(-788.102 -735.228)" fill="#1c1c1c"/>
      <rect id="Rectangle_3" data-name="Rectangle 3" width="2.352" height="12.168" transform="translate(156.493 -423.262)" fill="#1c1c1c"/>
      <path id="Path_9" data-name="Path 9" d="M1080.339,310.516a8.8,8.8,0,0,1,2.03.235,10.3,10.3,0,0,1,2.143.8v2.213a10.116,10.116,0,0,0-2.077-.932,6.868,6.868,0,0,0-1.99-.287,5.065,5.065,0,0,0-2.343.535,3.931,3.931,0,0,0-1.625,1.512,4.4,4.4,0,0,0,0,4.355,3.86,3.86,0,0,0,1.62,1.494,5.146,5.146,0,0,0,2.352.527,6.309,6.309,0,0,0,1.912-.288,13.845,13.845,0,0,0,2.3-1.036v2.212a10.638,10.638,0,0,1-2.178.88,9.171,9.171,0,0,1-2.317.261,7.52,7.52,0,0,1-3.44-.767,5.749,5.749,0,0,1-2.382-2.208,6.012,6.012,0,0,1-.866-3.157,6.209,6.209,0,0,1,.893-3.3,5.983,5.983,0,0,1,2.456-2.256,7.683,7.683,0,0,1,3.523-.793" transform="translate(-912.375 -733.935)" fill="#1c1c1c"/>
      <path id="Path_10" data-name="Path 10" d="M1193.4,311.962l5.374,12.169h-2.483l-1.263-2.962h-5.409l-1.176,2.962h-2.465L1191,311.962Zm-3.066,7.421h3.928l-2.056-4.816Z" transform="translate(-1012.719 -735.224)" fill="#1c1c1c"/>
      <path id="Path_18" data-name="Path 18" d="M755.715,290.967H754.1l.988-1.61H757.4Z" transform="translate(-627.546 -715.064)" fill="#1c1c1c"/>
    </g>
  </g>
</svg>
