<svg xmlns="http://www.w3.org/2000/svg" width="55" height="55" viewBox="0 0 55 55"><g id="Group_14742" data-name="Group 14742" transform="translate(-512 -1617)"><rect id="Rectangle_59" data-name="Rectangle 59" width="55" height="55" rx="27.5" transform="translate(512 1617)" fill="#05a1c2"></rect><g id="hogar" transform="translate(528.538 1633.538)"><path id="Path_26" data-name="Path 26" d="M20.988,7.943,14.515,1.47a5.031,5.031,0,0,0-7.105,0L.936,7.943A3.176,3.176,0,0,0,0,10.2v9.481a2.245,2.245,0,0,0,2.243,2.241H19.682a2.245,2.245,0,0,0,2.243-2.241V10.2A3.176,3.176,0,0,0,20.988,7.943Zm-1.8,11.242H14.616V16.278a3.488,3.488,0,0,0-3.488-3.488H10.8a3.488,3.488,0,0,0-3.488,3.488h0v2.907H2.74V10.2a.461.461,0,0,1,.133-.323L9.347,3.408a2.284,2.284,0,0,1,3.23,0h0L19.05,9.881a.461.461,0,0,1,.133.323v8.981Z" transform="translate(0 -0.001)" fill="#fff"></path></g></g></svg>