<svg xmlns="http://www.w3.org/2000/svg" width="39.011" height="39.325" viewBox="0 0 39.011 39.325"><path id="iglesia" d="M35.664,20.47,21.131,9.816V6.554h1.625a1.639,1.639,0,0,0,0-3.277H21.131V1.639a1.625,1.625,0,1,0-3.251,0V3.277H16.254a1.639,1.639,0,0,0,0,3.277H17.88V9.816L3.347,20.47A8.242,8.242,0,0,0,0,27.1v5.674a6.535,6.535,0,0,0,6.5,6.554H32.509a6.535,6.535,0,0,0,6.5-6.554V27.1A8.242,8.242,0,0,0,35.664,20.47ZM19.505,24.578a4.9,4.9,0,0,0-4.876,4.916v6.554H11.378V18.635l8.127-5.958,8.127,5.958V36.048H24.382V29.494A4.9,4.9,0,0,0,19.505,24.578ZM3.251,32.771V27.1A4.945,4.945,0,0,1,5.26,23.12l2.867-2.1v15.03H6.5A3.267,3.267,0,0,1,3.251,32.771ZM17.88,36.048V29.494a1.625,1.625,0,1,1,3.251,0v6.554Zm17.88-3.277a3.267,3.267,0,0,1-3.251,3.277H30.883V21.018l2.867,2.1A4.945,4.945,0,0,1,35.76,27.1Z" fill="#05a1c2"></path></svg>