<svg xmlns="http://www.w3.org/2000/svg" width="26.512" height="26.512" viewBox="0 0 26.512 26.512"><path id="llamada-telefonica" d="M14.38,1.107A1.106,1.106,0,0,1,15.487,0,11.077,11.077,0,0,1,26.551,11.065a1.106,1.106,0,0,1-2.213,0,8.862,8.862,0,0,0-8.852-8.852A1.106,1.106,0,0,1,14.38,1.107Zm1.106,5.532a4.426,4.426,0,0,1,4.426,4.426,1.106,1.106,0,1,0,2.213,0,6.646,6.646,0,0,0-6.639-6.639,1.106,1.106,0,0,0,0,2.213ZM25.548,18.522a3.43,3.43,0,0,1,0,4.844l-1.007,1.161C15.479,33.2-6.573,11.156,1.969,2.065L3.241.958A3.409,3.409,0,0,1,8.029,1c.034.034,2.085,2.7,2.085,2.7a3.43,3.43,0,0,1-.008,4.738L8.824,10.049a14.142,14.142,0,0,0,7.669,7.685l1.621-1.289a3.43,3.43,0,0,1,4.737-.007S25.514,18.487,25.548,18.522ZM24.025,20.13s-2.648-2.037-2.682-2.071a1.217,1.217,0,0,0-1.714,0c-.03.031-2.262,1.809-2.262,1.809a1.106,1.106,0,0,1-1.083.168,16.607,16.607,0,0,1-9.76-9.746,1.106,1.106,0,0,1,.16-1.106S8.463,6.951,8.493,6.922a1.217,1.217,0,0,0,0-1.714c-.034-.033-2.071-2.683-2.071-2.683a1.217,1.217,0,0,0-1.671.043L3.478,3.675c-6.243,7.506,12.867,25.556,19.445,19.34l1.008-1.162a1.24,1.24,0,0,0,.094-1.723Z" transform="translate(-0.039 0.002)" fill="#05a1c2"></path></svg>