<svg xmlns="http://www.w3.org/2000/svg" xmlns:xlink="http://www.w3.org/1999/xlink" id="Group_3" data-name="Group 3" width="141.056" height="46.063" viewBox="0 0 141.056 46.063"><defs><clipPath id="clip-path"><rect id="Rectangle_4" data-name="Rectangle 4" width="141.056" height="46.063" fill="#fff"></rect></clipPath></defs><path id="Path_1" data-name="Path 1" d="M9.277,311.965l-3.354,7.813-3.441-7.813H0L5.548,324.29h.819l5.374-12.325Z" transform="translate(0 -278.227)" fill="#fff"></path><rect id="Rectangle_1" data-name="Rectangle 1" width="2.352" height="12.168" transform="translate(13.222 33.738)" fill="#fff"></rect><path id="Path_2" data-name="Path 2" d="M171.649,311.965V322.3h5.906v1.838H169.3V311.965Z" transform="translate(-150.988 -278.227)" fill="#fff"></path><path id="Path_3" data-name="Path 3" d="M262.9,311.965V322.3h5.906v1.838H260.55V311.965Z" transform="translate(-232.372 -278.227)" fill="#fff"></path><path id="Path_4" data-name="Path 4" d="M347.628,311.962,353,324.131h-2.483l-1.263-2.962h-5.409l-1.176,2.962h-2.465l5.017-12.169Zm-3.066,7.421h3.929l-2.056-4.816Z" transform="translate(-303.414 -278.224)" fill="#fff"></path><g id="Group_2" data-name="Group 2"><g id="Group_1" data-name="Group 1" clip-path="url(#clip-path)"><path id="Path_5" data-name="Path 5" d="M519.775,310.516a7.316,7.316,0,0,1,3.4.779,6.147,6.147,0,0,1,.026,10.9,7.693,7.693,0,0,1-6.881-.013,6.023,6.023,0,0,1-3.271-5.418,6.12,6.12,0,0,1,.862-3.145,5.987,5.987,0,0,1,2.378-2.286,7.244,7.244,0,0,1,3.484-.814m-4.294,6.245a4.333,4.333,0,0,0,.549,2.178,3.816,3.816,0,0,0,1.529,1.5,4.575,4.575,0,0,0,2.217.531,4.229,4.229,0,0,0,3.079-1.176,4.049,4.049,0,0,0,1.206-3.031,4.39,4.39,0,0,0-.545-2.182,3.767,3.767,0,0,0-1.533-1.5,4.91,4.91,0,0,0-4.451,0,3.721,3.721,0,0,0-1.52,1.5,4.438,4.438,0,0,0-.531,2.182" transform="translate(-457.566 -276.935)" fill="#fff"></path><path id="Path_6" data-name="Path 6" d="M659.978,311.965V322.3h5.906v1.838h-8.257V311.965Z" transform="translate(-586.506 -278.227)" fill="#fff"></path><rect id="Rectangle_2" data-name="Rectangle 2" width="2.352" height="12.168" transform="translate(81.041 33.738)" fill="#fff"></rect><path id="Path_7" data-name="Path 7" d="M798.515,311.965l4,4.8,4-4.8h2.1v12.168h-2.352v-8.545h-.069l-3.519,4.286h-.331l-3.519-4.286h-.07v8.545H796.4V311.965Z" transform="translate(-710.271 -278.227)" fill="#fff"></path><path id="Path_8" data-name="Path 8" d="M938.829,311.966a3.921,3.921,0,0,1,2.774.989,3.318,3.318,0,0,1,1.067,2.548,3.278,3.278,0,0,1-1.08,2.552,4.087,4.087,0,0,1-2.848.975h-2.265v5.1h-2.352V311.966Zm-.584,5.226a2.254,2.254,0,0,0,1.468-.431,1.552,1.552,0,0,0,.527-1.276q0-1.681-2.16-1.681h-1.6v3.388Z" transform="translate(-833.102 -278.228)" fill="#fff"></path><rect id="Rectangle_3" data-name="Rectangle 3" width="2.352" height="12.168" transform="translate(111.493 33.738)" fill="#fff"></rect><path id="Path_9" data-name="Path 9" d="M1080.339,310.516a8.8,8.8,0,0,1,2.03.235,10.3,10.3,0,0,1,2.143.8v2.213a10.116,10.116,0,0,0-2.077-.932,6.868,6.868,0,0,0-1.99-.287,5.065,5.065,0,0,0-2.343.535,3.931,3.931,0,0,0-1.625,1.512,4.4,4.4,0,0,0,0,4.355,3.86,3.86,0,0,0,1.62,1.494,5.146,5.146,0,0,0,2.352.527,6.309,6.309,0,0,0,1.912-.288,13.845,13.845,0,0,0,2.3-1.036v2.212a10.638,10.638,0,0,1-2.178.88,9.171,9.171,0,0,1-2.317.261,7.52,7.52,0,0,1-3.44-.767,5.749,5.749,0,0,1-2.382-2.208,6.012,6.012,0,0,1-.866-3.157,6.209,6.209,0,0,1,.893-3.3,5.983,5.983,0,0,1,2.456-2.256,7.683,7.683,0,0,1,3.523-.793" transform="translate(-957.375 -276.935)" fill="#fff"></path><path id="Path_10" data-name="Path 10" d="M1193.4,311.962l5.374,12.169h-2.483l-1.263-2.962h-5.409l-1.176,2.962h-2.465L1191,311.962Zm-3.066,7.421h3.928l-2.056-4.816Z" transform="translate(-1057.719 -278.224)" fill="#fff"></path><path id="Path_11" data-name="Path 11" d="M830.383,116.909h5.14a7.5,7.5,0,0,0,1.708-4.767,7.593,7.593,0,0,0-3.22-6.183,8.348,8.348,0,0,0-16.629.953c0,.127,0,.253.009.38a6.823,6.823,0,0,0-2.922,3.864l2.509,2.326a3.937,3.937,0,0,1-.025-.44,4.056,4.056,0,0,1,2.457-3.707l1.439-.628-.668-1.112a5.578,5.578,0,1,1,11.118-.874l.065.865.639.362a4.812,4.812,0,0,1-1.62,8.963" transform="translate(-726.386 -87.997)" fill="#fff"></path><path id="Path_12" data-name="Path 12" d="M893.992,160v11.609h2.757v-4.1l-.663.439-1.523-2.3,2.186-1.449V160Z" transform="translate(-797.31 -142.695)" fill="#fff"></path><path id="Path_13" data-name="Path 13" d="M900.789,190.623l.663-.439,3.705-2.456-1.523-2.3-2.182,1.446-2.186,1.449Z" transform="translate(-802.013 -165.376)" fill="#fff"></path><path id="Path_14" data-name="Path 14" d="M467.809,174.061h4.126l8.278-7.488,8.009,7.488h4.224l-12.436-11.437Z" transform="translate(-417.217 -145.037)" fill="#fff"></path><path id="Path_15" data-name="Path 15" d="M393.279,111.745h3.833L413.743,96.7l16.09,15.045h4.359L413.539,92.752Z" transform="translate(-350.747 -82.721)" fill="#fff"></path><path id="Path_16" data-name="Path 16" d="M318.746,49.427h3.54l24.984-22.6,24.1,22.533h4.493l-28.8-26.482Z" transform="translate(-284.275 -20.403)" fill="#fff"></path><path id="Path_17" data-name="Path 17" d="M308.077,11.68l2.757-2.571A10.508,10.508,0,1,0,298.3,20.795l2.749-2.563a7.833,7.833,0,0,1-1.589-.035,7.749,7.749,0,0,1-3.8-13.8A7.691,7.691,0,0,1,300.4,2.757a7.864,7.864,0,0,1,.972.061,7.749,7.749,0,0,1,6.733,8.646c-.009.072-.021.144-.032.216" transform="translate(-258.559 0)" fill="#fff"></path><path id="Path_18" data-name="Path 18" d="M755.715,290.967H754.1l.988-1.61H757.4Z" transform="translate(-672.546 -258.064)" fill="#fff"></path></g></g></svg>