<svg xmlns="http://www.w3.org/2000/svg" width="28.77" height="34.338" viewBox="0 0 28.77 34.338"><g id="marcador" transform="translate(0 0)"><path id="Path_12857" data-name="Path 12857" d="M13.722,6a5.722,5.722,0,1,0,5.722,5.722A5.722,5.722,0,0,0,13.722,6Zm0,8.584a2.861,2.861,0,1,1,2.861-2.861A2.861,2.861,0,0,1,13.722,14.584Z" transform="translate(0.662 2.587)" fill="#05a1c2"></path><path id="Path_12858" data-name="Path 12858" d="M16.33,34.335a7.541,7.541,0,0,1-6.167-3.147C4.71,23.667,1.945,18.014,1.945,14.383a14.385,14.385,0,0,1,28.77,0c0,3.631-2.765,9.285-8.217,16.805A7.541,7.541,0,0,1,16.33,34.335Zm0-31.214A11.277,11.277,0,0,0,5.065,14.386c0,2.876,2.708,8.193,7.624,14.973a4.5,4.5,0,0,0,7.282,0c4.916-6.78,7.624-12.1,7.624-14.973A11.277,11.277,0,0,0,16.33,3.121Z" transform="translate(-1.945 0.002)" fill="#05a1c2"></path></g></svg>