<svg xmlns="http://www.w3.org/2000/svg" id="mesa-de-picnic" width="39.203" height="39.178" viewBox="0 0 39.203 39.178"><path id="Path_12840" data-name="Path 12840" d="M10.441,7.73a3.812,3.812,0,0,0-3.808,3.808,4.186,4.186,0,0,0,.031.484,3.379,3.379,0,0,0,.355,6.74H18.987a4.236,4.236,0,0,0,1.61-8.154,4.775,4.775,0,0,0,.061-.784,5.089,5.089,0,0,0-9.739-2.069c-.153-.012-.312-.024-.477-.024Zm1.383,1.72a.824.824,0,0,0,.41-.514,3.456,3.456,0,0,1,6.795.894,3.5,3.5,0,0,1-.178,1.09.817.817,0,0,0,.624,1.059,2.6,2.6,0,0,1-.484,5.16H7.025a1.751,1.751,0,1,1,0-3.5h.716a.816.816,0,0,0,.692-.38.84.84,0,0,0,.049-.79,2.156,2.156,0,0,1-.214-.93,2.184,2.184,0,0,1,2.179-2.179,2.15,2.15,0,0,1,.728.129.775.775,0,0,0,.649-.037Z" transform="translate(-2.012 -2.447)" fill="#00a3c1"></path><path id="Path_12841" data-name="Path 12841" d="M12.768,48.567h5.038L15.29,51.083l1.157,1.157,3.673-3.673h1.7a2.449,2.449,0,1,0,0-4.9H8.759a2.449,2.449,0,1,0,0,4.9h1.7l7.921,7.921a.805.805,0,0,0,1.145-1.132C17.647,53.458,14.3,50.11,12.768,48.567ZM7.944,46.119a.814.814,0,0,1,.814-.814H21.816a.814.814,0,0,1,0,1.628H8.759a.814.814,0,0,1-.814-.814Z" transform="translate(-3.047 -17.549)" fill="#00a3c1"></path><path id="Path_12842" data-name="Path 12842" d="M13.892,60.78a.81.81,0,0,0,.575,1.377.791.791,0,0,0,.569-.239l3.1-3.091L16.984,57.67C16.984,57.664,15.2,59.457,13.892,60.78Z" transform="translate(-5.897 -22.979)" fill="#00a3c1"></path><path id="Path_12843" data-name="Path 12843" d="M5.877,49.16H2.608V41.814a.814.814,0,1,0-1.628,0V54.871a.814.814,0,1,0,1.628,0V50.795H5.871v4.083a.814.814,0,0,0,1.628,0V50.795A1.624,1.624,0,0,0,5.877,49.16Z" transform="translate(-0.98 -16.514)" fill="#00a3c1"></path><path id="Path_12844" data-name="Path 12844" d="M36.021,41a.814.814,0,0,0-.814.814V49.16H31.944a1.638,1.638,0,0,0-1.634,1.634v4.083a.814.814,0,0,0,1.628,0V50.795H35.2v4.077a.814.814,0,0,0,1.628,0V41.814A.8.8,0,0,0,36.021,41Z" transform="translate(-12.355 -16.514)" fill="#00a3c1"></path><path id="Path_12845" data-name="Path 12845" d="M55.677,25.3c0-3.373-2.767-16.3-7.37-16.3S40.93,21.923,40.93,25.3a7.388,7.388,0,0,0,6.556,7.328v9.023H45.038a.814.814,0,0,0-.814.814.823.823,0,0,0,.814.82h6.532a.814.814,0,1,0,0-1.628H49.121V32.623A7.383,7.383,0,0,0,55.677,25.3Zm-13.112,0c0-4.144,3.128-14.661,5.742-14.661S54.049,21.157,54.049,25.3a5.756,5.756,0,0,1-4.928,5.681v-1.23l3.024-3.024a.818.818,0,0,0-1.157-1.157l-1.873,1.873v-1.3a.814.814,0,0,0-1.628,0v1.292l-1.873-1.873a.818.818,0,0,0-1.157,1.157L47.48,29.74v1.23A5.739,5.739,0,0,1,42.564,25.3Z" transform="translate(-16.474 -4.103)" fill="#00a3c1"></path><path id="Path_12846" data-name="Path 12846" d="M3.018,10.739a.814.814,0,0,0,.612-1.353A4.063,4.063,0,0,1,6.691,2.628a4.025,4.025,0,0,1,2.9,1.23.818.818,0,0,0,1.169-1.145,5.7,5.7,0,0,0-8.356,7.744A.792.792,0,0,0,3.018,10.739Z" transform="translate(-0.98 -1)" fill="#00a3c1"></path></svg>