<svg xmlns="http://www.w3.org/2000/svg" width="36.468" height="33.431" viewBox="0 0 36.468 33.431"><path id="money-cheque-editar" d="M36.468,9.6v1.52a1.52,1.52,0,0,1-3.039,0V9.6a4.564,4.564,0,0,0-4.559-4.559H7.6A4.564,4.564,0,0,0,3.039,9.6v15.2A4.564,4.564,0,0,0,7.6,29.351h4.559a1.52,1.52,0,1,1,0,3.039H7.6a7.606,7.606,0,0,1-7.6-7.6V9.6A7.606,7.606,0,0,1,7.6,2H28.871A7.606,7.606,0,0,1,36.468,9.6ZM22.793,12.637h6.078a1.52,1.52,0,0,0,0-3.039H22.793a1.52,1.52,0,0,0,0,3.039Zm12.34,4.375a4.558,4.558,0,0,1,0,6.447L24.941,33.65a6.04,6.04,0,0,1-4.3,1.781h-2.41a1.519,1.519,0,0,1-1.52-1.52V31.5A6.034,6.034,0,0,1,18.5,27.2L28.687,17.013a4.562,4.562,0,0,1,6.446,0Zm-1.7,3.223a1.52,1.52,0,0,0-2.594-1.074L20.644,29.351a3.065,3.065,0,0,0-.89,2.149v.89h.89a3.018,3.018,0,0,0,2.149-.89L32.984,21.308A1.509,1.509,0,0,0,33.429,20.234Zm-19.754,1.52H10.229a1.529,1.529,0,0,1-1.317-.76,1.519,1.519,0,1,0-2.629,1.521,4.571,4.571,0,0,0,3.948,2.278h.407a1.52,1.52,0,1,0,3.039,0,4.564,4.564,0,0,0,4.559-4.559,4.2,4.2,0,0,0-3.518-4.153l-4.621-.77a1.167,1.167,0,0,1-.979-1.155,1.521,1.521,0,0,1,1.52-1.52h3.446a1.529,1.529,0,0,1,1.317.76,1.519,1.519,0,1,0,2.629-1.521A4.572,4.572,0,0,0,14.083,9.6h-.407a1.52,1.52,0,0,0-3.039,0,4.564,4.564,0,0,0-4.559,4.559A4.2,4.2,0,0,0,9.6,18.307l4.621.77a1.167,1.167,0,0,1,.979,1.155,1.521,1.521,0,0,1-1.52,1.52Zm7.6-4.559a1.52,1.52,0,1,0,1.52-1.52A1.52,1.52,0,0,0,21.273,17.2Z" transform="translate(0 -2)" fill="#01a2c2"></path></svg>