<svg xmlns="http://www.w3.org/2000/svg" width="39.005" height="39.325" viewBox="0 0 39.005 39.325"><path id="piscina" d="M9.751,29.491a1.632,1.632,0,0,0,1.625-1.638V24.576H27.627v3.277a1.625,1.625,0,1,0,3.25,0V8.187a4.912,4.912,0,0,1,4.859-4.911s.01,0,.016,0a1.638,1.638,0,0,0,0-3.277c-.013,0-.023.007-.034.007V0a8.176,8.176,0,0,0-8.092,8.191V11.47H11.376V8.187a4.912,4.912,0,0,1,4.859-4.911s.01,0,.016,0a1.638,1.638,0,0,0,0-3.277c-.013,0-.023.007-.034.007V0A8.176,8.176,0,0,0,8.125,8.187V27.853A1.632,1.632,0,0,0,9.751,29.491ZM27.627,14.747V21.3H11.376V14.747Zm6.5,24.574a7.084,7.084,0,0,1-4.875-2.007,6.926,6.926,0,0,1-9.751,0,6.926,6.926,0,0,1-9.751,0,7.084,7.084,0,0,1-4.875,2.007A6.441,6.441,0,0,1,.539,37.645a1.647,1.647,0,0,1-.122-2.313,1.617,1.617,0,0,1,2.295-.123,3.218,3.218,0,0,0,2.165.836A3.652,3.652,0,0,0,8.22,33.86a1.621,1.621,0,0,1,3.065,0,3.651,3.651,0,0,0,6.686,0,1.621,1.621,0,0,1,3.065,0,3.651,3.651,0,0,0,6.686,0,1.621,1.621,0,0,1,3.065,0,3.652,3.652,0,0,0,3.343,2.184,3.221,3.221,0,0,0,2.165-.836,1.616,1.616,0,0,1,2.295.123,1.648,1.648,0,0,1-.122,2.313,6.447,6.447,0,0,1-4.336,1.676Z" transform="translate(-0.001 0.004)" fill="#05a1c2"></path></svg>