<svg xmlns="http://www.w3.org/2000/svg" id="reloj" width="27.962" height="27.962" viewBox="0 0 27.962 27.962"><path id="Path_12866" data-name="Path 12866" d="M13.981,0A13.981,13.981,0,1,0,27.962,13.981,13.981,13.981,0,0,0,13.981,0Zm0,25.632A11.651,11.651,0,1,1,25.632,13.981,11.651,11.651,0,0,1,13.981,25.632Z" transform="translate(0 0)" fill="#05a1c2"></path><path id="Path_12867" data-name="Path 12867" d="M12.8,6a1.165,1.165,0,0,0-1.165,1.165V12.2L7.707,14.665a1.168,1.168,0,1,0,1.237,1.981l4.474-2.8a1.165,1.165,0,0,0,.546-1V7.165A1.165,1.165,0,0,0,12.8,6Z" transform="translate(1.182 0.99)" fill="#05a1c2"></path></svg>