<svg xmlns="http://www.w3.org/2000/svg" width="30.917" height="28.341" viewBox="0 0 30.917 28.341"><path id="sobre" d="M24.476,1H6.441A6.449,6.449,0,0,0,0,7.441V22.9a6.449,6.449,0,0,0,6.441,6.441H24.476A6.449,6.449,0,0,0,30.917,22.9V7.441A6.449,6.449,0,0,0,24.476,1ZM6.441,3.576H24.476a3.865,3.865,0,0,1,3.581,2.431l-9.865,9.866a3.874,3.874,0,0,1-5.467,0L2.86,6.007A3.865,3.865,0,0,1,6.441,3.576ZM24.476,26.764H6.441A3.865,3.865,0,0,1,2.576,22.9V9.373L10.9,17.7a6.45,6.45,0,0,0,9.11,0l8.327-8.322V22.9A3.865,3.865,0,0,1,24.476,26.764Z" transform="translate(0 -1)" fill="#05a1c2"></path></svg>