<svg xmlns="http://www.w3.org/2000/svg" width="32.861" height="32.707" viewBox="0 0 32.861 32.707"><path id="sosteniendo-la-llave-con-la-mano" d="M16.253,7.449a2.032,2.032,0,1,1,2.032,2.032A2.032,2.032,0,0,1,16.253,7.449ZM.837,9.362A2.716,2.716,0,0,1,.829,5.54L2.724,3.627a2.021,2.021,0,0,1,1.438-.6h.005A2.027,2.027,0,0,1,5.6,3.619l.471.47L6.566,3.6a2.036,2.036,0,0,1,2.863.009l.68.614.29-.288A7.323,7.323,0,0,1,16.723,0,7.433,7.433,0,0,1,24,5.053,7.471,7.471,0,0,1,16.932,14.9a7.44,7.44,0,0,1-5.744-2.709H5.349A4.035,4.035,0,0,1,2.476,11L.837,9.363ZM2.752,7.447,4.391,9.084a1.345,1.345,0,0,0,.958.4h6.516a1.356,1.356,0,0,1,1.126.6,4.738,4.738,0,0,0,7.768.165,4.842,4.842,0,0,0,.662-4.373A4.79,4.79,0,0,0,16.788,2.71a4.716,4.716,0,0,0-4.139,2.743c-.058.1-1.535,1.6-1.535,1.6A1.354,1.354,0,0,1,9.249,7.1L8.011,5.982l-.994.981a1.351,1.351,0,0,1-1.908-.007l-.94-.939L2.752,7.448ZM31.472,18.981l-8.01,8.991a13.552,13.552,0,0,1-10.114,4.535H5.418A5.423,5.423,0,0,1,0,27.089V21.671a5.423,5.423,0,0,1,5.418-5.418h12a4.254,4.254,0,0,1,3.642,2.057l4.357-4.787a4.077,4.077,0,0,1,6.058,5.458ZM29.35,15.256a1.379,1.379,0,0,0-1.933.089l-6,6.589a4.283,4.283,0,0,1-3.405,2.787l-6.99,1a1.354,1.354,0,1,1-.383-2.68l6.99-1a1.547,1.547,0,0,0-.221-3.079H5.418a2.712,2.712,0,0,0-2.709,2.709V27.09A2.712,2.712,0,0,0,5.418,29.8h7.93a10.843,10.843,0,0,0,8.09-3.627l8.011-8.992a1.373,1.373,0,0,0-.1-1.922Z" transform="translate(0.224 0.101)" fill="#05a1c2" stroke="#00a3c1" stroke-width="0.2"></path></svg>