<svg xmlns="http://www.w3.org/2000/svg" width="33.369" height="33.431" viewBox="0 0 33.369 33.431"><path id="usuario-de-la-casa" d="M30.306,7.719,20.573,1.151a6.925,6.925,0,0,0-7.778,0L3.063,7.719A6.945,6.945,0,0,0,0,13.483V26.434a6.96,6.96,0,0,0,6.952,6.952H26.417a6.96,6.96,0,0,0,6.952-6.952V13.483a6.947,6.947,0,0,0-3.063-5.764ZM11.123,30.605a5.561,5.561,0,0,1,11.123,0H11.123Zm19.465-4.171a4.176,4.176,0,0,1-4.171,4.171h-1.39a8.342,8.342,0,0,0-16.684,0H6.952a4.176,4.176,0,0,1-4.171-4.171V13.483a4.164,4.164,0,0,1,1.838-3.458l9.733-6.568a4.152,4.152,0,0,1,4.666,0l9.733,6.568a4.165,4.165,0,0,1,1.838,3.458ZM16.684,9.75a5.561,5.561,0,1,0,5.561,5.561A5.567,5.567,0,0,0,16.684,9.75Zm0,8.342a2.781,2.781,0,1,1,2.781-2.781A2.784,2.784,0,0,1,16.684,18.092Z" transform="translate(0 0.044)" fill="#01a2c2"></path></svg>